<?xml version="1.0" encoding="utf-8"?>
<!-- Generator: Adobe Illustrator 18.1.0, SVG Export Plug-In . SVG Version: 6.00 Build 0)  -->
<!DOCTYPE svg PUBLIC "-//W3C//DTD SVG 1.1//EN" "http://www.w3.org/Graphics/SVG/1.1/DTD/svg11.dtd">
<svg version="1.1" id="Layer_1" xmlns="http://www.w3.org/2000/svg" xmlns:xlink="http://www.w3.org/1999/xlink" x="0px" y="0px"
	 viewBox="0 0 529.8 137.6" enable-background="new 0 0 529.8 137.6" xml:space="preserve">
<g>
	<g>
		<path fill="#4FAEDC" d="M59.8,21.9c2,1.8,4.1,3.5,6.3,5.1c2.7-0.3,5.4-0.8,8.1-1.4c-0.1-0.3-0.2-0.7-0.3-1
			c-3.5-2.1-6.9-4.5-10.1-7C62.5,19.1,61.2,20.5,59.8,21.9z"/>
		<path fill="#E34A3B" d="M32.9,89.7c-2.6-1.3-5.3-2.5-8-3.5c-1.2,3.1-2.7,6.2-4.3,9.1C24.6,93.1,28.7,91.2,32.9,89.7z"/>
		<path fill="#4FAEDC" d="M72.9,20.7c-0.9-4.5-1.4-9.2-1.5-13.9c-1.8,3-3.7,5.9-5.9,8.6C67.9,17.2,70.4,19,72.9,20.7z"/>
		<path fill="#E34A3B" d="M37.3,88.3c0.3-0.1,0.6-0.2,0.9-0.2c-0.8-2.5-1.7-5-2.8-7.4c-2.5-1.1-5.1-2-7.7-2.9
			c-0.5,1.9-1.1,3.8-1.7,5.7c3.7,1.4,7.3,3.1,10.8,5C37,88.4,37.1,88.4,37.3,88.3z"/>
		<path fill="#E34A3B" d="M31.2,72.4c-0.6-1-1.2-1.9-1.8-2.9c-0.3,1.8-0.6,3.7-1,5.5c1.8,0.5,3.5,1.1,5.2,1.8
			C32.9,75.4,32.1,73.9,31.2,72.4z"/>
		<path fill="#E34A3B" d="M17.9,63.7c-3.4,3-7.1,5.6-11,8c3.4,0,6.8,0.3,10.1,0.8C17.5,69.6,17.8,66.7,17.9,63.7z"/>
		<path fill="#E34A3B" d="M25,77c-1.8-0.5-3.7-0.9-5.5-1.3c-0.3,1.7-0.6,3.4-1,5.1c1.6,0.5,3.3,1,4.9,1.6C23.9,80.7,24.5,78.9,25,77
			z"/>
		<path fill="#9F7AB0" d="M28.3,41c0.4,1.7,0.7,3.5,1,5.3c1.5-2.3,2.9-4.6,4.1-7C31.7,39.9,30,40.4,28.3,41z"/>
		<path fill="#4FAEDC" d="M61.8,27.3c-1.4-1.1-2.8-2.3-4.1-3.5c-1.3,1.2-2.6,2.4-4,3.5C56.4,27.5,59.1,27.5,61.8,27.3z"/>
		<path fill="#1B75BB" d="M82.6,26.2c2.7,1.3,5.4,2.5,8.1,3.6c1.2-3.1,2.7-6.2,4.3-9.2C91,22.8,86.9,24.7,82.6,26.2z"/>
		<path fill="#9F7AB0" d="M24.9,29.9c2.8-1.1,5.5-2.4,8.2-3.7c-4.4-1.5-8.6-3.4-12.7-5.6C22.1,23.6,23.6,26.7,24.9,29.9z"/>
		<path fill="#4FAEDC" d="M57.7,12.3c-1.2,1.2-2.5,2.3-3.8,3.4c1.2,1.4,2.5,2.8,3.9,4.1c1.3-1.3,2.6-2.7,3.8-4.1
			C60.2,14.7,58.9,13.5,57.7,12.3z"/>
		<path fill="#4FAEDC" d="M55.7,21.9c-1.4-1.4-2.7-2.8-4-4.3c-3.1,2.5-6.4,4.8-9.8,6.9c-0.1,0.4-0.2,0.8-0.3,1.2
			c2.6,0.6,5.3,1,8,1.3C51.7,25.4,53.7,23.7,55.7,21.9z"/>
		<path fill="#F9A533" d="M53.7,88.5c1.4,1.1,2.8,2.3,4.2,3.6c1.3-1.2,2.7-2.5,4.1-3.6C59.3,88.3,56.5,88.3,53.7,88.5z"/>
		<path fill="#F9A533" d="M43,95.5c0.8,4.4,1.3,8.8,1.4,13.2c1.7-2.8,3.6-5.6,5.6-8.2C47.8,98.8,45.4,97.1,43,95.5z"/>
		<path fill="#F9A533" d="M57.9,103.6c1.3-1.2,2.5-2.3,3.9-3.5c-1.2-1.4-2.5-2.8-3.8-4.1c-1.3,1.3-2.6,2.7-3.9,4.2
			C55.4,101.3,56.6,102.4,57.9,103.6z"/>
		<path fill="#F9A533" d="M55.9,94c-2-1.9-4.1-3.6-6.4-5.2c-2.6,0.3-5.2,0.7-7.7,1.3c0.1,0.5,0.3,1,0.4,1.4c3.3,2.1,6.6,4.3,9.7,6.8
			C53.1,96.9,54.5,95.4,55.9,94z"/>
		<path fill="#1B75BB" d="M97.2,35.1c-1.6-0.5-3.2-1-4.8-1.6c-0.6,1.8-1.2,3.6-1.6,5.4c1.8,0.5,3.6,0.9,5.5,1.2
			C96.5,38.4,96.8,36.7,97.2,35.1z"/>
		<path fill="#1B75BB" d="M99,40.6c4.8,0.7,9.7,0.9,14.6,0.7c-0.3-0.9-0.6-1.9-0.9-2.8c-4.3-0.6-8.5-1.4-12.7-2.6
			C99.6,37.4,99.3,39,99,40.6z"/>
		<path fill="#8BC53F" d="M109,71.5c-4-2.4-7.8-5.1-11.3-8.2c0.2,3,0.5,6,0.9,9C102,71.8,105.5,71.5,109,71.5z"/>
		<path fill="#9F7AB0" d="M7.1,44.4c3.8,2.3,7.4,4.9,10.8,7.8c-0.2-2.9-0.5-5.8-0.9-8.6C13.7,44.1,10.4,44.3,7.1,44.4z"/>
		<path fill="#1B75BB" d="M94.7,55c0.1-4.1,0.5-8.1,1-12.1c-1.9-0.4-3.8-0.8-5.7-1.3c-0.6,2.6-1,5.2-1.3,7.8
			c1.6,2.2,3.4,4.3,5.2,6.3C94.2,55.5,94.5,55.3,94.7,55z"/>
		<path fill="#8BC53F" d="M90.8,85.9c-2.8,1.1-5.4,2.3-8.1,3.6C87,91,91.2,92.8,95.1,95C93.5,92.1,92,89,90.8,85.9z"/>
		<path fill="#F9A533" d="M60,94c1.4,1.4,2.7,2.8,4,4.3c3.2-2.6,6.5-4.9,10-7.1c0.1-0.4,0.2-0.7,0.3-1.1c-2.6-0.6-5.3-1-8-1.3
			C64.1,90.4,62,92.2,60,94z"/>
		<path fill="#E34A3B" d="M27,66.1c-1.6-2.1-3.3-4.2-5.1-6.1c-0.3,0.3-0.7,0.7-1,1c-0.1,4-0.4,8-1,12c1.9,0.4,3.9,0.8,5.8,1.3
			C26.2,71.6,26.7,68.9,27,66.1z"/>
		<path fill="#8BC53F" d="M86.4,69.7c-1.4,2.2-2.8,4.5-4,6.9c1.6-0.6,3.3-1.2,5-1.7C87,73.2,86.6,71.5,86.4,69.7z"/>
		<path fill="#8BC53F" d="M89.8,83.3c-0.7-1.9-1.2-3.7-1.7-5.6c-2.5,0.8-5,1.7-7.4,2.8c-1.1,2.5-2,5-2.8,7.6
			c0.4,0.1,0.7,0.2,1.1,0.3C82.4,86.5,86.1,84.7,89.8,83.3z"/>
		<path fill="#9F7AB0" d="M38,27.7c-0.4-0.1-0.7-0.2-1.1-0.3c-3.6,1.9-7.2,3.7-11,5.2c0.7,1.8,1.2,3.7,1.8,5.6
			c2.6-0.8,5.1-1.8,7.6-2.9C36.3,32.9,37.2,30.3,38,27.7z"/>
		<path fill="#F9A533" d="M71.7,109c0-4.7,0.5-9.3,1.4-13.8c-2.5,1.7-4.9,3.4-7.3,5.3C67.9,103.2,69.9,106,71.7,109z"/>
		<path fill="#E34A3B" d="M18.1,57c0-0.3,0-0.6,0-0.8c-4.9-4.6-10.5-8.4-16.5-11.5c-2,8.6-2.2,17.7,0,26.8
			c6.1-3.2,11.6-7.1,16.5-11.7C18.1,58.8,18.1,57.9,18.1,57z"/>
		<path fill="#F9A533" d="M60,105.5c3,3,5.9,6.2,8.6,9.6c1-0.2,2-0.4,2.9-0.6c-2.2-4.4-4.9-8.5-7.9-12.2
			C62.3,103.4,61.1,104.4,60,105.5z"/>
		<path fill="#F9A533" d="M36.5,91.6c-6.5,2-12.7,4.9-18.4,8.6c6.6,6.3,14.6,10.9,23.4,13.5c0.3-6.8-0.3-13.6-1.8-20.3
			C38.6,92.8,37.5,92.2,36.5,91.6z"/>
		<path fill="#F9A533" d="M50.6,115.6c4.8,0.6,9.7,0.6,14.6,0c-2.3-2.9-4.8-5.6-7.4-8.1C55.3,110.1,52.9,112.8,50.6,115.6z"/>
		<path fill="#E34A3B" d="M17.7,83.6c-1.1,4.1-2.4,8-4,11.9c0.7,0.8,1.3,1.5,2,2.3c2.6-4,4.8-8.3,6.5-12.7
			C20.8,84.6,19.3,84.1,17.7,83.6z"/>
		<path fill="#E34A3B" d="M16.6,75.3c-4.6-0.7-9.4-0.9-14.2-0.7c0.3,1,0.6,2,1,2.9c4.1,0.6,8.2,1.4,12.2,2.5
			C16,78.5,16.3,76.9,16.6,75.3z"/>
		<path fill="#E34A3B" d="M4.6,80.6c1.9,4.5,4.3,8.6,7.1,12.4c1.3-3.3,2.4-6.7,3.3-10.2C11.6,81.9,8.1,81.2,4.6,80.6z"/>
		<path fill="#F9A533" d="M52.2,102.4c-3,3.8-5.6,7.8-7.7,12.1c1,0.2,1.9,0.4,2.9,0.6c2.6-3.4,5.4-6.6,8.4-9.6
			C54.7,104.5,53.5,103.4,52.2,102.4z"/>
		<path fill="#8BC53F" d="M76.4,93.1c-1.6,6.7-2.2,13.6-1.8,20.6c9.1-2.7,17-7.4,23.4-13.6c-5.9-3.8-12.2-6.7-18.8-8.7
			C78.3,92,77.4,92.5,76.4,93.1z"/>
		<path fill="#1B75BB" d="M114.4,44.3c-6.3,3.2-11.9,7.3-16.9,12c0,1,0,2,0,3c5,4.7,10.7,8.8,17,12
			C116.6,62.7,116.7,53.4,114.4,44.3z"/>
		<path fill="#8BC53F" d="M104.2,93.2c3-4,5.5-8.3,7.4-13c-3.7,0.6-7.3,1.3-10.9,2.3C101.7,86.2,102.8,89.8,104.2,93.2z"/>
		<path fill="#8BC53F" d="M99.1,75.1c0.3,1.6,0.6,3.1,1,4.7c4.2-1.2,8.5-2,12.8-2.6c0.3-0.9,0.6-1.8,0.9-2.8
			C108.8,74.2,103.9,74.4,99.1,75.1z"/>
		<path fill="#8BC53F" d="M96.3,75.6c-1.8,0.3-3.7,0.8-5.5,1.3c0.5,1.8,1,3.6,1.7,5.4c1.6-0.6,3.2-1.1,4.8-1.6
			C96.9,79,96.6,77.3,96.3,75.6z"/>
		<path fill="#8BC53F" d="M93.5,84.9c1.8,4.5,4,8.9,6.7,13c0.7-0.7,1.3-1.4,1.9-2.1c-1.7-4.1-3-8.2-4.1-12.4
			C96.5,83.9,95,84.4,93.5,84.9z"/>
		<path fill="#8BC53F" d="M95.8,72.8c-0.6-4.1-1-8.1-1.1-12.2c-0.2-0.2-0.5-0.5-0.7-0.7c-1.9,2-3.6,4.2-5.2,6.4
			c0.3,2.6,0.8,5.3,1.3,7.8C92,73.6,93.9,73.2,95.8,72.8z"/>
		<path fill="#4FAEDC" d="M55.6,10.4c-3-2.9-5.7-6-8.3-9.3c-1,0.2-1.9,0.4-2.9,0.6c2.2,4.2,4.8,8.2,7.7,11.9
			C53.3,12.5,54.4,11.4,55.6,10.4z"/>
		<path fill="#1B75BB" d="M97.9,32.3c1.1-4.1,2.4-8.2,4.1-12.2c-0.6-0.7-1.3-1.5-2-2.2c-2.7,4.1-4.9,8.4-6.6,12.9
			C94.9,31.3,96.4,31.8,97.9,32.3z"/>
		<path fill="#4FAEDC" d="M79,24.3c6.6-2,12.9-4.9,18.7-8.7C91.1,9.5,83.1,4.9,74.4,2.4c-0.3,7,0.3,13.8,1.9,20.4
			C77.2,23.3,78.1,23.8,79,24.3z"/>
		<path fill="#1B75BB" d="M111.5,35.4c-2-4.6-4.5-8.9-7.5-12.8c-1.3,3.4-2.5,6.9-3.4,10.5C104.2,34.1,107.8,34.8,111.5,35.4z"/>
		<path fill="#9F7AB0" d="M16.5,40.8c-0.3-1.6-0.6-3.1-1-4.7c-4,1.1-8.1,2-12.2,2.6c-0.3,0.9-0.7,1.9-0.9,2.9
			C7.1,41.7,11.9,41.5,16.5,40.8z"/>
		<path fill="#1B75BB" d="M97.7,52.3c3.4-3,7.1-5.7,11.1-8.1c-3.4,0-6.8-0.3-10.2-0.8C98.1,46.3,97.8,49.3,97.7,52.3z"/>
		<path fill="#4FAEDC" d="M64.8,0.4c-4.7-0.6-9.5-0.5-14.3,0.1c2.3,2.8,4.6,5.4,7.2,7.9C60.2,5.8,62.6,3.2,64.8,0.4z"/>
		<path fill="#1B75BB" d="M82.4,39.2c1.2,2.3,2.5,4.6,3.9,6.8c0.3-1.7,0.6-3.4,1-5.1C85.7,40.3,84,39.8,82.4,39.2z"/>
		<path fill="#4FAEDC" d="M63.4,13.6c3-3.7,5.5-7.8,7.7-12.1c-1-0.2-2-0.4-3-0.6c-2.6,3.3-5.4,6.5-8.4,9.5
			C60.9,11.4,62.1,12.5,63.4,13.6z"/>
		<path fill="#9F7AB0" d="M22.2,30.9c-1.7-4.4-3.9-8.6-6.5-12.6c-0.7,0.7-1.4,1.5-2,2.3c1.6,3.9,2.9,7.8,3.9,11.9
			C19.2,32,20.7,31.5,22.2,30.9z"/>
		<path fill="#9F7AB0" d="M26.9,49.7c-0.3-2.7-0.8-5.3-1.4-7.9c-1.9,0.5-3.8,1-5.8,1.3c0.6,3.9,0.9,7.8,1.1,11.8
			c0.3,0.3,0.7,0.6,1,1C23.7,53.9,25.4,51.9,26.9,49.7z"/>
		<path fill="#9F7AB0" d="M11.6,23.2C8.8,27,6.4,31.2,4.6,35.5c3.5-0.6,6.9-1.3,10.3-2.2C14,29.9,12.9,26.5,11.6,23.2z"/>
		<path fill="#9F7AB0" d="M39.4,22.7c1.5-6.5,2.1-13.3,1.8-20.2c-8.9,2.7-16.7,7.4-23.1,13.4c5.7,3.7,12,6.5,18.4,8.4
			C37.5,23.8,38.5,23.2,39.4,22.7z"/>
		<path fill="#4FAEDC" d="M44.2,7.2c-0.1,4.5-0.5,9-1.4,13.3c2.4-1.6,4.8-3.3,7.1-5.2C47.8,12.8,45.9,10.1,44.2,7.2z"/>
		<path fill="#9F7AB0" d="M19.3,40.3c1.9-0.4,3.7-0.8,5.6-1.3c-0.5-1.8-1.1-3.6-1.7-5.4c-1.6,0.6-3.3,1.1-4.9,1.6
			C18.7,36.9,19,38.6,19.3,40.3z"/>
		<path fill="#1B75BB" d="M78.5,27.4c-0.3,0.1-0.6,0.1-0.8,0.2c0.8,2.6,1.8,5.2,2.9,7.7c2.4,1,4.9,1.9,7.4,2.7
			c0.5-1.9,1.1-3.7,1.7-5.6c-3.8-1.5-7.4-3.2-11-5.1C78.6,27.4,78.6,27.4,78.5,27.4z"/>
	</g>
	<g>
		<g>
			<path fill="#1B75BB" d="M158,47.3c-8.3,0-13.8-5.9-13.8-13.8c0-7.5,5.7-13.8,13.8-13.8c4.6,0,7.5,1.3,10.2,3.6l-3,3.5
				c-2.1-1.8-4.1-2.9-7.5-2.9c-4.9,0-8.6,4.3-8.6,9.4c0,5.5,3.6,9.6,9.1,9.6c2.5,0,4.8-0.8,6.4-2v-5h-6.8V32h11.4v11.2
				C166.5,45.4,162.7,47.3,158,47.3z"/>
			<path fill="#1B75BB" d="M175,46.8V19h4.6v27.8H175z"/>
			<path fill="#1B75BB" d="M195.2,47.3c-6.1,0-10.7-4.7-10.7-10.4c0-5.8,4.6-10.6,10.7-10.6c6.2,0,10.7,4.7,10.7,10.5
				C205.9,42.5,201.4,47.3,195.2,47.3z M195.2,30.3c-3.7,0-6.1,2.9-6.1,6.4c0,3.6,2.6,6.5,6.1,6.5c3.7,0,6.1-2.9,6.1-6.4
				C201.3,33.3,198.8,30.3,195.2,30.3z"/>
			<path fill="#1B75BB" d="M222.1,47.3c-3.3,0-5.4-1.7-6.8-3.5v3.1h-4.6V19h4.6v11c1.5-2.1,3.6-3.8,6.8-3.8c4.8,0,9.4,3.8,9.4,10.5
				C231.4,43.5,226.9,47.3,222.1,47.3z M221,30.3c-3.1,0-5.9,2.6-5.9,6.5s2.7,6.5,5.9,6.5c3.2,0,5.8-2.5,5.8-6.5
				C226.7,32.8,224.1,30.3,221,30.3z"/>
			<path fill="#1B75BB" d="M248.5,46.8v-2.5c-1.4,1.6-3.5,2.9-6.5,2.9c-3.8,0-7.2-2.2-7.2-6.2V41c0-4.3,3.5-6.5,8.2-6.5
				c2.4,0,4,0.3,5.6,0.8v-0.5c0-2.8-1.8-4.3-5-4.3c-2.2,0-3.9,0.5-5.8,1.3l-1.3-3.7c2.2-1,4.4-1.7,7.7-1.7c5.9,0,8.8,3.1,8.8,8.5
				v11.9H248.5z M248.6,38.3c-1.2-0.5-2.8-0.8-4.6-0.8c-2.9,0-4.6,1.2-4.6,3.2v0.1c0,1.9,1.7,3,3.9,3c3,0,5.3-1.7,5.3-4.2V38.3z"/>
			<path fill="#1B75BB" d="M258.8,46.8V19h4.6v27.8H258.8z"/>
			<path fill="#1B75BB" d="M306.9,46.8h-5l-2.7-6.4h-12.6l-2.7,6.4h-4.8L290.8,20h4.3L306.9,46.8z M292.9,25.6l-4.6,10.7h9.2
				L292.9,25.6z"/>
			<path fill="#1B75BB" d="M311.2,46.8V19h4.6v27.8H311.2z"/>
			<path fill="#1B75BB" d="M322.1,46.8V19h4.6v27.8H322.1z"/>
			<path fill="#1B75BB" d="M332.8,23.6v-4.4h5v4.4H332.8z M333,46.8V26.7h4.6v20.1H333z"/>
			<path fill="#1B75BB" d="M355.9,46.8v-2.5c-1.4,1.6-3.5,2.9-6.5,2.9c-3.8,0-7.2-2.2-7.2-6.2V41c0-4.3,3.5-6.5,8.2-6.5
				c2.4,0,4,0.3,5.6,0.8v-0.5c0-2.8-1.8-4.3-5-4.3c-2.2,0-3.9,0.5-5.8,1.3l-1.3-3.7c2.2-1,4.4-1.7,7.7-1.7c5.9,0,8.8,3.1,8.8,8.5
				v11.9H355.9z M356,38.3c-1.2-0.5-2.8-0.8-4.6-0.8c-2.9,0-4.6,1.2-4.6,3.2v0.1c0,1.9,1.7,3,3.9,3c3,0,5.3-1.7,5.3-4.2V38.3z"/>
			<path fill="#1B75BB" d="M370.6,46.8H366V26.7h4.6v3.1c1.3-1.9,3.2-3.5,6.3-3.5c4.5,0,7.2,3,7.2,7.7v12.8h-4.6V35.4
				c0-3.1-1.6-4.9-4.3-4.9c-2.7,0-4.5,1.9-4.5,5V46.8z"/>
			<path fill="#1B75BB" d="M398.9,47.3c-6,0-10.4-4.7-10.4-10.4s4.4-10.6,10.4-10.6c3.8,0,6.2,1.4,8,3.5l-2.9,3.1
				c-1.4-1.5-2.9-2.5-5.2-2.5c-3.4,0-5.8,2.9-5.8,6.4c0,3.6,2.5,6.5,6,6.5c2.2,0,3.8-1,5.2-2.5l2.8,2.7
				C405.1,45.7,402.8,47.3,398.9,47.3z"/>
			<path fill="#1B75BB" d="M420,43.5c2.2,0,3.8-0.8,5.5-2.4l2.7,2.4c-1.9,2.3-4.5,3.8-8.2,3.8c-5.8,0-10.3-4.2-10.3-10.5
				c0-5.8,4.1-10.5,9.8-10.5c6.4,0,9.6,5,9.6,10.9c0,0.4,0,0.8-0.1,1.3h-14.8C414.8,41.7,417.1,43.5,420,43.5z M424.5,35.4
				c-0.3-3-2.1-5.3-5.1-5.3c-2.8,0-4.8,2.2-5.2,5.3H424.5z"/>
			<path fill="#77787B" d="M154.3,70.8v2.3h-5.7v15.7H146V73.1h-2.5v-2.3h2.5v-1.6c0-3.9,2-6,5.4-6c1.3,0,2.1,0.1,3,0.5v2.3
				c-1-0.3-1.7-0.5-2.6-0.5c-2.1,0-3.1,1.3-3.1,3.8v1.5H154.3z"/>
			<path fill="#77787B" d="M165.6,89.2c-5.4,0-9.4-4.3-9.4-9.4c0-5.1,4-9.5,9.4-9.5c5.4,0,9.4,4.3,9.4,9.4
				C175.1,84.8,171.1,89.2,165.6,89.2z M165.6,72.7c-3.9,0-6.6,3.1-6.6,7c0,3.9,2.9,7.1,6.7,7.1c3.9,0,6.6-3.1,6.6-7
				C172.4,75.8,169.5,72.7,165.6,72.7z"/>
			<path fill="#77787B" d="M182.7,88.7H180v-18h2.7v4.7c1.3-3,3.9-5.2,7.4-5v2.9h-0.2c-3.9,0-7.2,2.8-7.2,8.3V88.7z"/>
			<path fill="#77787B" d="M216.4,89.2c-7.7,0-12.4-5.6-12.4-12.6c0-6.7,4.9-12.7,12.3-12.7c4.1,0,6.7,1.2,9.1,3.2l-1.8,2.1
				c-1.9-1.6-4-2.8-7.4-2.8c-5.4,0-9.3,4.6-9.3,10.1c0,5.9,3.7,10.2,9.7,10.2c2.8,0,5.4-1.1,7.1-2.4v-6.1h-7.4v-2.5h10.1v9.7
				C223.9,87.5,220.5,89.2,216.4,89.2z"/>
			<path fill="#77787B" d="M239.9,86.8c2.5,0,4.2-1,5.7-2.5l1.7,1.5c-1.8,2-4,3.4-7.4,3.4c-5,0-9-3.8-9-9.4c0-5.2,3.7-9.4,8.7-9.4
				c5.3,0,8.4,4.3,8.4,9.6c0,0.2,0,0.5,0,0.8h-14.3C233.9,84.6,236.7,86.8,239.9,86.8z M245.2,78.7c-0.3-3.3-2.2-6.1-5.8-6.1
				c-3.1,0-5.5,2.6-5.9,6.1H245.2z"/>
			<path fill="#77787B" d="M255.3,88.7h-2.7v-18h2.7v3.1c1.2-2,3.1-3.5,6.2-3.5c4.4,0,6.9,2.9,6.9,7.2v11.2h-2.7V78.2
				c0-3.4-1.8-5.4-5-5.4c-3.1,0-5.4,2.3-5.4,5.7V88.7z"/>
			<path fill="#77787B" d="M282.4,89.2c-5.4,0-9.4-4.3-9.4-9.4c0-5.1,4-9.5,9.4-9.5c5.4,0,9.4,4.3,9.4,9.4
				C291.8,84.8,287.8,89.2,282.4,89.2z M282.4,72.7c-3.9,0-6.6,3.1-6.6,7c0,3.9,2.9,7.1,6.7,7.1c3.9,0,6.6-3.1,6.6-7
				C289.1,75.8,286.2,72.7,282.4,72.7z"/>
			<path fill="#77787B" d="M317.3,70.3c4.2,0,6.7,2.8,6.7,7.3v11.2h-2.7V78.2c0-3.5-1.7-5.4-4.7-5.4c-2.7,0-5,2-5,5.6v10.4H309V78.1
				c0-3.4-1.8-5.4-4.6-5.4c-2.9,0-5,2.4-5,5.7v10.3h-2.7v-18h2.7v3c1.2-1.8,2.8-3.4,5.8-3.4c2.9,0,4.8,1.6,5.8,3.6
				C312.3,71.9,314.2,70.3,317.3,70.3z"/>
			<path fill="#77787B" d="M330,66.7v-3h3.1v3H330z M330.1,88.7v-18h2.7v18H330.1z"/>
			<path fill="#77787B" d="M347.2,89.2c-5.3,0-9.3-4.3-9.3-9.4c0-5.1,4-9.5,9.3-9.5c3.4,0,5.5,1.4,7.2,3.2l-1.8,1.9
				c-1.4-1.5-3-2.7-5.5-2.7c-3.7,0-6.5,3.1-6.5,7c0,3.9,2.9,7.1,6.6,7.1c2.3,0,4.1-1.2,5.5-2.7l1.7,1.6
				C352.7,87.7,350.6,89.2,347.2,89.2z"/>
			<path fill="#77787B" d="M365,89.1c-2.6,0-5.4-1-7.5-2.7l1.4-1.9c2,1.5,4.1,2.3,6.2,2.3c2.2,0,3.7-1.1,3.7-2.9v-0.1
				c0-1.8-2.1-2.5-4.5-3.2c-2.8-0.8-6-1.8-6-5.1v-0.1c0-3.1,2.6-5.2,6.1-5.2c2.2,0,4.6,0.8,6.5,2l-1.2,2c-1.7-1.1-3.6-1.7-5.3-1.7
				c-2.1,0-3.5,1.1-3.5,2.6v0.1c0,1.7,2.2,2.4,4.6,3.1c2.8,0.8,5.8,1.9,5.8,5.2v0.1C371.4,87.1,368.6,89.1,365,89.1z"/>
			<path fill="#77787B" d="M424.8,77.7v11h-2.8V64.3h2.8v10.9h14.1V64.3h2.8v24.4h-2.8v-11H424.8z"/>
			<path fill="#77787B" d="M456.1,86.8c2.5,0,4.2-1,5.7-2.5l1.7,1.5c-1.8,2-4,3.4-7.4,3.4c-5,0-9-3.8-9-9.4c0-5.2,3.7-9.4,8.7-9.4
				c5.3,0,8.4,4.3,8.4,9.6c0,0.2,0,0.5,0,0.8h-14.3C450.2,84.6,453,86.8,456.1,86.8z M461.4,78.7c-0.3-3.3-2.2-6.1-5.8-6.1
				c-3.1,0-5.5,2.6-5.9,6.1H461.4z"/>
			<path fill="#77787B" d="M469.9,74.1l-0.8-2.2c2-0.9,3.9-1.5,6.6-1.5c4.9,0,7.7,2.5,7.7,7.3v11h-2.6V86c-1.3,1.6-3.4,3.1-6.5,3.1
				c-3.3,0-6.7-1.9-6.7-5.7c0-3.8,3.1-5.9,7.7-5.9c2.3,0,3.9,0.3,5.6,0.8v-0.6c0-3.2-2-4.9-5.4-4.9
				C473.2,72.8,471.6,73.4,469.9,74.1z M470.2,83.4c0,2.3,2.1,3.6,4.5,3.6c3.3,0,6-2,6-4.9v-1.7c-1.3-0.4-3.1-0.8-5.3-0.8
				C472.1,79.6,470.2,81.1,470.2,83.4z"/>
			<path fill="#77787B" d="M489.3,88.7V63.3h2.7v25.5H489.3z"/>
			<path fill="#77787B" d="M501.9,83.6c0,2.2,1.2,3,3,3c0.9,0,1.7-0.2,2.6-0.6v2.3c-0.9,0.5-2,0.8-3.2,0.8c-2.9,0-5.1-1.4-5.1-5.1
				V73.1h-2.5v-2.4h2.5v-5.4h2.7v5.4h5.7v2.4h-5.7V83.6z"/>
			<path fill="#77787B" d="M515,88.7h-2.7V63.3h2.7v10.6c1.2-2,3.1-3.5,6.2-3.5c4.4,0,6.9,2.9,6.9,7.2v11.2h-2.7V78.2
				c0-3.4-1.8-5.4-5-5.4c-3.1,0-5.4,2.3-5.4,5.7V88.7z"/>
		</g>
		<g>
			<path fill="#1B75BB" d="M152,137.6c-4.8,0-8.3-3.7-8.3-8.5c0-4.7,3.5-8.5,8.3-8.5c3,0,4.8,1.1,6.4,2.6l-1.3,1.4
				c-1.4-1.3-2.9-2.3-5.2-2.3c-3.6,0-6.4,2.9-6.4,6.8c0,3.8,2.8,6.8,6.4,6.8c2.3,0,3.7-0.9,5.3-2.4l1.2,1.2
				C156.9,136.4,155,137.6,152,137.6z"/>
			<path fill="#1B75BB" d="M166.9,137.6c-3.6,0-6.3-2.9-6.3-6.3c0-3.5,2.7-6.4,6.4-6.4c3.6,0,6.3,2.9,6.3,6.3
				C173.3,134.6,170.6,137.6,166.9,137.6z M166.9,126.5c-2.6,0-4.4,2.1-4.4,4.7c0,2.6,1.9,4.8,4.5,4.8c2.6,0,4.5-2.1,4.5-4.7
				C171.4,128.6,169.5,126.5,166.9,126.5z"/>
			<path fill="#1B75BB" d="M176.7,137.3v-17.2h1.8v17.2H176.7z"/>
			<path fill="#1B75BB" d="M182.9,137.3v-17.2h1.8v17.2H182.9z"/>
			<path fill="#1B75BB" d="M189.6,127.4l-0.5-1.5c1.3-0.6,2.7-1,4.4-1c3.3,0,5.2,1.7,5.2,4.9v7.4H197v-1.8c-0.8,1.1-2.3,2.1-4.4,2.1
				c-2.3,0-4.5-1.3-4.5-3.8c0-2.6,2.1-4,5.2-4c1.6,0,2.7,0.2,3.7,0.5v-0.4c0-2.2-1.3-3.3-3.6-3.3
				C191.9,126.6,190.8,126.9,189.6,127.4z M189.8,133.7c0,1.6,1.4,2.4,3.1,2.4c2.2,0,4.1-1.4,4.1-3.3v-1.2c-0.9-0.3-2.1-0.5-3.6-0.5
				C191.1,131.1,189.8,132.1,189.8,133.7z"/>
			<path fill="#1B75BB" d="M209,137.5c-2.3,0-3.7-1.2-4.7-2.6v2.3h-1.8v-17.2h1.8v7.5c1-1.5,2.4-2.7,4.7-2.7c2.9,0,5.8,2.3,5.8,6.3
				C214.8,135.2,212,137.5,209,137.5z M208.7,126.5c-2.3,0-4.4,1.9-4.4,4.7c0,2.8,2.1,4.7,4.4,4.7c2.4,0,4.3-1.7,4.3-4.7
				C213,128.3,211,126.5,208.7,126.5z"/>
			<path fill="#1B75BB" d="M223.7,137.6c-3.6,0-6.3-2.9-6.3-6.3c0-3.5,2.7-6.4,6.4-6.4c3.6,0,6.3,2.9,6.3,6.3
				C230.1,134.6,227.4,137.6,223.7,137.6z M223.7,126.5c-2.6,0-4.4,2.1-4.4,4.7c0,2.6,1.9,4.8,4.5,4.8c2.6,0,4.5-2.1,4.5-4.7
				C228.3,128.6,226.3,126.5,223.7,126.5z"/>
			<path fill="#1B75BB" d="M235.2,137.3h-1.8v-12.2h1.8v3.2c0.9-2,2.7-3.5,5-3.4v2H240c-2.7,0-4.8,1.9-4.8,5.6V137.3z"/>
			<path fill="#1B75BB" d="M243,127.4l-0.5-1.5c1.3-0.6,2.7-1,4.4-1c3.3,0,5.2,1.7,5.2,4.9v7.4h-1.7v-1.8c-0.8,1.1-2.3,2.1-4.4,2.1
				c-2.3,0-4.5-1.3-4.5-3.8c0-2.6,2.1-4,5.2-4c1.6,0,2.7,0.2,3.7,0.5v-0.4c0-2.2-1.3-3.3-3.6-3.3C245.3,126.6,244.2,126.9,243,127.4
				z M243.3,133.7c0,1.6,1.4,2.4,3.1,2.4c2.2,0,4.1-1.4,4.1-3.3v-1.2c-0.9-0.3-2.1-0.5-3.6-0.5C244.5,131.1,243.3,132.1,243.3,133.7
				z"/>
			<path fill="#1B75BB" d="M258.3,133.8c0,1.5,0.8,2,2,2c0.6,0,1.1-0.1,1.8-0.4v1.6c-0.6,0.3-1.3,0.5-2.2,0.5c-2,0-3.4-1-3.4-3.4
				v-7.3h-1.7v-1.6h1.7v-3.7h1.8v3.7h3.9v1.6h-3.9V133.8z"/>
			<path fill="#1B75BB" d="M270.4,136c1.7,0,2.8-0.7,3.8-1.7l1.1,1c-1.2,1.4-2.7,2.3-5,2.3c-3.3,0-6.1-2.6-6.1-6.4
				c0-3.5,2.5-6.4,5.8-6.4c3.6,0,5.7,2.9,5.7,6.4c0,0.2,0,0.4,0,0.6h-9.7C266.3,134.5,268.2,136,270.4,136z M273.9,130.5
				c-0.2-2.2-1.5-4.1-3.9-4.1c-2.1,0-3.7,1.8-4,4.1H273.9z"/>
			<path fill="#1B75BB" d="M278.5,137.3v-2.5h2.2v2.5H278.5z"/>
			<path fill="#1B75BB" d="M293.9,120.8v16.5H292v-16.5H293.9z"/>
			<path fill="#1B75BB" d="M300.2,137.3h-1.8v-12.2h1.8v2.1c0.8-1.3,2.1-2.4,4.2-2.4c2.9,0,4.7,2,4.7,4.9v7.6h-1.8v-7.1
				c0-2.3-1.2-3.7-3.4-3.7c-2.1,0-3.6,1.5-3.6,3.8V137.3z"/>
			<path fill="#1B75BB" d="M314.7,137.3h-1.8v-12.2h1.8v2.1c0.8-1.3,2.1-2.4,4.2-2.4c2.9,0,4.7,2,4.7,4.9v7.6h-1.8v-7.1
				c0-2.3-1.2-3.7-3.4-3.7c-2.1,0-3.6,1.5-3.6,3.8V137.3z"/>
			<path fill="#1B75BB" d="M332.9,137.6c-3.6,0-6.3-2.9-6.3-6.3c0-3.5,2.7-6.4,6.4-6.4c3.6,0,6.3,2.9,6.3,6.3
				C339.3,134.6,336.6,137.6,332.9,137.6z M332.9,126.5c-2.6,0-4.5,2.1-4.5,4.7c0,2.6,1.9,4.8,4.5,4.8c2.6,0,4.5-2.1,4.5-4.7
				C337.5,128.6,335.5,126.5,332.9,126.5z"/>
			<path fill="#1B75BB" d="M350.9,125.1h2l-5.3,12.3H346l-5.3-12.3h2l4.1,10.1L350.9,125.1z"/>
			<path fill="#1B75BB" d="M355.8,127.4l-0.5-1.5c1.3-0.6,2.7-1,4.4-1c3.3,0,5.2,1.7,5.2,4.9v7.4h-1.7v-1.8
				c-0.8,1.1-2.3,2.1-4.4,2.1c-2.3,0-4.5-1.3-4.5-3.8c0-2.6,2.1-4,5.2-4c1.6,0,2.7,0.2,3.7,0.5v-0.4c0-2.2-1.3-3.3-3.6-3.3
				C358.1,126.6,356.9,126.9,355.8,127.4z M356,133.7c0,1.6,1.4,2.4,3.1,2.4c2.2,0,4.1-1.4,4.1-3.3v-1.2c-0.9-0.3-2.1-0.5-3.6-0.5
				C357.3,131.1,356,132.1,356,133.7z"/>
			<path fill="#1B75BB" d="M371.1,133.8c0,1.5,0.8,2,2,2c0.6,0,1.1-0.1,1.8-0.4v1.6c-0.6,0.3-1.3,0.5-2.2,0.5c-2,0-3.4-1-3.4-3.4
				v-7.3h-1.7v-1.6h1.7v-3.7h1.8v3.7h3.9v1.6h-3.9V133.8z"/>
			<path fill="#1B75BB" d="M383.1,136c1.7,0,2.8-0.7,3.8-1.7l1.1,1c-1.2,1.4-2.7,2.3-5,2.3c-3.3,0-6.1-2.6-6.1-6.4
				c0-3.5,2.5-6.4,5.8-6.4c3.6,0,5.7,2.9,5.7,6.4c0,0.2,0,0.4,0,0.6h-9.7C379.1,134.5,381,136,383.1,136z M386.7,130.5
				c-0.2-2.2-1.5-4.1-3.9-4.1c-2.1,0-3.7,1.8-4,4.1H386.7z"/>
			<path fill="#1B75BB" d="M391.3,137.3v-2.5h2.2v2.5H391.3z"/>
			<path fill="#1B75BB" d="M419.9,137.3h-2l-1.9-4.4h-9l-2,4.4h-1.9l7.5-16.6h1.7L419.9,137.3z M411.5,122.9l-3.8,8.4h7.5
				L411.5,122.9z"/>
			<path fill="#1B75BB" d="M427.8,137.6c-3.6,0-6.2-2.9-6.2-6.3c0-3.5,2.7-6.4,6.2-6.4c2.3,0,3.7,1,4.9,2.2l-1.2,1.3
				c-1-1-2-1.8-3.7-1.8c-2.5,0-4.4,2.1-4.4,4.7c0,2.7,1.9,4.8,4.5,4.8c1.6,0,2.8-0.8,3.7-1.8l1.2,1.1
				C431.5,136.6,430.1,137.6,427.8,137.6z"/>
			<path fill="#1B75BB" d="M440.9,137.6c-3.6,0-6.2-2.9-6.2-6.3c0-3.5,2.7-6.4,6.2-6.4c2.3,0,3.7,1,4.9,2.2l-1.2,1.3
				c-1-1-2-1.8-3.7-1.8c-2.5,0-4.4,2.1-4.4,4.7c0,2.7,1.9,4.8,4.5,4.8c1.6,0,2.8-0.8,3.7-1.8l1.2,1.1
				C444.6,136.6,443.2,137.6,440.9,137.6z"/>
			<path fill="#1B75BB" d="M453.8,136c1.7,0,2.8-0.7,3.8-1.7l1.1,1c-1.2,1.4-2.7,2.3-5,2.3c-3.3,0-6.1-2.6-6.1-6.4
				c0-3.5,2.5-6.4,5.8-6.4c3.6,0,5.7,2.9,5.7,6.4c0,0.2,0,0.4,0,0.6h-9.7C449.8,134.5,451.7,136,453.8,136z M457.4,130.5
				c-0.2-2.2-1.5-4.1-3.9-4.1c-2.1,0-3.7,1.8-4,4.1H457.4z"/>
			<path fill="#1B75BB" d="M462.6,137.3v-17.2h1.8v17.2H462.6z"/>
			<path fill="#1B75BB" d="M474,136c1.7,0,2.8-0.7,3.8-1.7l1.1,1c-1.2,1.4-2.7,2.3-5,2.3c-3.3,0-6.1-2.6-6.1-6.4
				c0-3.5,2.5-6.4,5.8-6.4c3.6,0,5.7,2.9,5.7,6.4c0,0.2,0,0.4,0,0.6h-9.6C469.9,134.5,471.8,136,474,136z M477.5,130.5
				c-0.2-2.2-1.5-4.1-3.9-4.1c-2.1,0-3.7,1.8-4,4.1H477.5z"/>
			<path fill="#1B75BB" d="M484.3,137.3h-1.8v-12.2h1.8v3.2c0.9-2,2.7-3.5,5-3.4v2h-0.1c-2.7,0-4.8,1.9-4.8,5.6V137.3z"/>
			<path fill="#1B75BB" d="M492.2,127.4l-0.5-1.5c1.3-0.6,2.7-1,4.4-1c3.3,0,5.2,1.7,5.2,4.9v7.4h-1.7v-1.8
				c-0.8,1.1-2.3,2.1-4.4,2.1c-2.3,0-4.5-1.3-4.5-3.8c0-2.6,2.1-4,5.2-4c1.6,0,2.7,0.2,3.7,0.5v-0.4c0-2.2-1.3-3.3-3.6-3.3
				C494.4,126.6,493.3,126.9,492.2,127.4z M492.4,133.7c0,1.6,1.4,2.4,3.1,2.4c2.2,0,4.1-1.4,4.1-3.3v-1.2c-0.9-0.3-2.1-0.5-3.6-0.5
				C493.7,131.1,492.4,132.1,492.4,133.7z"/>
			<path fill="#1B75BB" d="M507.4,133.8c0,1.5,0.8,2,2,2c0.6,0,1.1-0.1,1.8-0.4v1.6c-0.6,0.3-1.3,0.5-2.2,0.5c-2,0-3.4-1-3.4-3.4
				v-7.3h-1.7v-1.6h1.7v-3.7h1.8v3.7h3.9v1.6h-3.9V133.8z"/>
			<path fill="#1B75BB" d="M519.5,136c1.7,0,2.8-0.7,3.8-1.7l1.1,1c-1.2,1.4-2.7,2.3-5,2.3c-3.3,0-6.1-2.6-6.1-6.4
				c0-3.5,2.5-6.4,5.8-6.4c3.6,0,5.7,2.9,5.7,6.4c0,0.2,0,0.4,0,0.6h-9.7C515.5,134.5,517.4,136,519.5,136z M523.1,130.5
				c-0.2-2.2-1.5-4.1-3.9-4.1c-2.1,0-3.7,1.8-4,4.1H523.1z"/>
			<path fill="#1B75BB" d="M527.6,137.3v-2.5h2.2v2.5H527.6z"/>
		</g>
		<path fill="#77787B" d="M402.7,76.1v-3H400v3h-4.2c-3.8,0-4.2-2.5-4.2-3.6c0-2.1,1.6-3.5,4.1-3.5c0.6,0,1.2,0.1,1.5,0.2l0.7-2.1
			c-0.4-0.1-1.5-0.3-2.4-0.3c-4,0-6.6,2.2-6.6,5.5c0,3.6,2.7,4.6,2.8,4.6l0.7,0.2l-0.7,0.2c-2.2,0.7-3.7,2.9-3.7,5.5
			c0,3.7,3.1,6.3,7.4,6.3c4.6,0,7.4-2.8,7.4-7.5v-3.1h2.9v-2.3H402.7z M399.7,81.5c0,3.2-1.6,4.9-4.5,4.9c-2.6,0-4.4-1.6-4.4-3.8
			c0-2.4,1.8-3.8,4.8-3.9h4.2L399.7,81.5z"/>
	</g>
</g>
</svg>
