<?xml version="1.0" encoding="utf-8"?>
<!-- Generator: Adobe Illustrator 16.0.4, SVG Export Plug-In . SVG Version: 6.00 Build 0)  -->
<!DOCTYPE svg PUBLIC "-//W3C//DTD SVG 1.1//EN" "http://www.w3.org/Graphics/SVG/1.1/DTD/svg11.dtd">
<svg version="1.1" id="Layer_1" xmlns="http://www.w3.org/2000/svg" xmlns:xlink="http://www.w3.org/1999/xlink" x="0px" y="0px"
	 width="610.008px" height="134.059px" viewBox="0.028 316.522 610.008 134.059"
	 enable-background="new 0.028 316.522 610.008 134.059" xml:space="preserve">
<rect x="0.028" y="316.522" fill="#2980BA" width="610.008" height="134.059"/>
<circle fill="#FFFFFF" cx="67.057" cy="383.552" r="67.029"/>
<g>
	<g>
		<path fill="#4FADDB" d="M69.078,341.823c2.311,2.08,4.736,4.043,7.277,5.892c3.119-0.347,6.238-0.924,9.357-1.617
			c-0.116-0.347-0.231-0.809-0.347-1.155c-4.043-2.426-7.971-5.198-11.667-8.086C72.197,338.589,70.695,340.206,69.078,341.823z"/>
		<path fill="#E34A3A" d="M38.004,420.143c-3.003-1.502-6.122-2.888-9.241-4.043c-1.386,3.581-3.119,7.162-4.967,10.512
			C28.417,424.07,33.153,421.875,38.004,420.143z"/>
		<path fill="#4FADDB" d="M84.21,340.437c-1.04-5.198-1.617-10.627-1.732-16.057c-2.08,3.466-4.274,6.815-6.815,9.935
			C78.435,336.394,81.323,338.474,84.21,340.437z"/>
		<path fill="#E34A3A" d="M43.087,418.525c0.346-0.115,0.693-0.23,1.04-0.23c-0.924-2.889-1.964-5.776-3.234-8.549
			c-2.888-1.271-5.892-2.311-8.895-3.35c-0.578,2.194-1.271,4.39-1.963,6.584c4.274,1.617,8.433,3.581,12.476,5.776
			C42.741,418.641,42.856,418.641,43.087,418.525z"/>
		<path fill="#E34A3A" d="M36.041,400.158c-0.693-1.154-1.386-2.194-2.08-3.35c-0.347,2.079-0.693,4.274-1.155,6.354
			c2.08,0.577,4.043,1.271,6.007,2.079C38.004,403.624,37.081,401.892,36.041,400.158z"/>
		<path fill="#E34A3A" d="M20.677,390.109c-3.928,3.465-8.202,6.468-12.707,9.241c3.927,0,7.855,0.347,11.667,0.925
			C20.215,396.924,20.562,393.574,20.677,390.109z"/>
		<path fill="#E34A3A" d="M28.879,405.473c-2.08-0.578-4.274-1.04-6.354-1.502c-0.347,1.964-0.693,3.928-1.155,5.891
			c1.849,0.578,3.812,1.155,5.661,1.849C27.608,409.746,28.301,407.667,28.879,405.473z"/>
		<path fill="#9F7AB0" d="M32.691,363.887c0.462,1.964,0.809,4.043,1.155,6.123c1.732-2.657,3.35-5.314,4.736-8.086
			C36.618,362.616,34.655,363.194,32.691,363.887z"/>
		<path fill="#4FADDB" d="M71.389,348.061c-1.618-1.271-3.235-2.657-4.736-4.043c-1.502,1.386-3.003,2.772-4.621,4.043
			C65.15,348.292,68.27,348.292,71.389,348.061z"/>
		<path fill="#1C75BB" d="M95.416,346.791c3.119,1.501,6.238,2.888,9.357,4.159c1.386-3.581,3.119-7.162,4.967-10.627
			C105.119,342.863,100.383,345.058,95.416,346.791z"/>
		<path fill="#9F7AB0" d="M28.763,351.064c3.234-1.271,6.354-2.772,9.472-4.274c-5.083-1.733-9.934-3.928-14.67-6.469
			C25.529,343.787,27.262,347.368,28.763,351.064z"/>
		<path fill="#4FADDB" d="M66.652,330.734c-1.386,1.386-2.888,2.657-4.39,3.927c1.386,1.618,2.888,3.235,4.505,4.736
			c1.501-1.501,3.003-3.119,4.389-4.736C69.54,333.506,68.039,332.12,66.652,330.734z"/>
		<path fill="#4FADDB" d="M64.342,341.823c-1.617-1.617-3.119-3.234-4.621-4.967c-3.581,2.888-7.393,5.545-11.32,7.971
			c-0.116,0.462-0.231,0.924-0.347,1.386c3.003,0.693,6.123,1.155,9.241,1.502C59.721,345.866,62.032,343.903,64.342,341.823z"/>
		<path fill="#FAA633" d="M62.032,418.757c1.617,1.271,3.234,2.656,4.852,4.158c1.502-1.386,3.119-2.888,4.736-4.158
			C68.5,418.525,65.266,418.525,62.032,418.757z"/>
		<path fill="#FAA633" d="M49.671,426.843c0.924,5.082,1.502,10.165,1.617,15.248c1.964-3.234,4.159-6.469,6.469-9.473
			C55.216,430.654,52.444,428.69,49.671,426.843z"/>
		<path fill="#FAA633" d="M66.883,436.199c1.502-1.386,2.888-2.656,4.505-4.043c-1.386-1.617-2.888-3.234-4.39-4.736
			c-1.502,1.502-3.003,3.119-4.505,4.852C63.996,433.543,65.382,434.813,66.883,436.199z"/>
		<path fill="#FAA633" d="M64.573,425.109c-2.311-2.194-4.736-4.158-7.393-6.006c-3.003,0.346-6.007,0.809-8.895,1.501
			c0.116,0.578,0.347,1.155,0.462,1.617c3.812,2.426,7.624,4.968,11.205,7.855C61.338,428.46,62.956,426.728,64.573,425.109z"/>
		<path fill="#1C75BB" d="M112.281,357.071c-1.848-0.578-3.696-1.155-5.544-1.848c-0.693,2.079-1.386,4.159-1.849,6.238
			c2.08,0.578,4.159,1.04,6.354,1.386C111.472,360.883,111.819,358.919,112.281,357.071z"/>
		<path fill="#1C75BB" d="M114.36,363.425c5.544,0.809,11.205,1.04,16.865,0.809c-0.347-1.04-0.693-2.195-1.04-3.234
			c-4.967-0.693-9.819-1.617-14.67-3.003C115.053,359.728,114.707,361.577,114.36,363.425z"/>
		<path fill="#8BC540" d="M125.912,399.119c-4.621-2.772-9.01-5.892-13.053-9.473c0.231,3.466,0.578,6.931,1.04,10.396
			C117.826,399.466,121.869,399.119,125.912,399.119z"/>
		<path fill="#9F7AB0" d="M8.202,367.814c4.39,2.657,8.548,5.66,12.476,9.01c-0.231-3.35-0.578-6.7-1.04-9.934
			C15.826,367.468,12.014,367.699,8.202,367.814z"/>
		<path fill="#1C75BB" d="M109.393,380.059c0.115-4.736,0.578-9.357,1.155-13.978c-2.195-0.462-4.39-0.924-6.584-1.501
			c-0.693,3.003-1.155,6.006-1.502,9.01c1.849,2.542,3.928,4.967,6.007,7.278C108.815,380.637,109.162,380.405,109.393,380.059z"/>
		<path fill="#8BC540" d="M104.888,415.753c-3.234,1.271-6.238,2.657-9.356,4.159c4.967,1.732,9.819,3.812,14.324,6.353
			C108.007,422.915,106.274,419.334,104.888,415.753z"/>
		<path fill="#FAA633" d="M69.309,425.109c1.617,1.618,3.119,3.235,4.621,4.968c3.697-3.004,7.509-5.66,11.552-8.202
			c0.115-0.462,0.231-0.809,0.346-1.271c-3.003-0.692-6.122-1.155-9.241-1.501C74.045,420.951,71.62,423.03,69.309,425.109z"/>
		<path fill="#E34A3A" d="M31.189,392.881c-1.848-2.426-3.812-4.852-5.891-7.046c-0.347,0.347-0.809,0.809-1.155,1.155
			c-0.115,4.621-0.462,9.242-1.155,13.862c2.195,0.462,4.505,0.924,6.7,1.502C30.265,399.234,30.843,396.115,31.189,392.881z"/>
		<path fill="#8BC540" d="M99.805,397.04c-1.617,2.541-3.234,5.198-4.621,7.97c1.848-0.692,3.812-1.386,5.776-1.963
			C100.499,401.083,100.036,399.119,99.805,397.04z"/>
		<path fill="#8BC540" d="M103.733,412.75c-0.809-2.195-1.386-4.274-1.964-6.469c-2.888,0.924-5.776,1.963-8.548,3.234
			c-1.271,2.888-2.31,5.775-3.234,8.779c0.462,0.115,0.809,0.23,1.271,0.346C95.185,416.446,99.458,414.367,103.733,412.75z"/>
		<path fill="#9F7AB0" d="M43.896,348.523c-0.462-0.116-0.809-0.231-1.271-0.347c-4.158,2.195-8.317,4.274-12.707,6.007
			c0.809,2.079,1.386,4.274,2.079,6.469c3.003-0.924,5.892-2.079,8.779-3.35C41.932,354.53,42.972,351.526,43.896,348.523z"/>
		<path fill="#FAA633" d="M82.824,442.438c0-5.43,0.578-10.743,1.618-15.941c-2.888,1.964-5.661,3.928-8.433,6.122
			C78.435,435.737,80.745,438.972,82.824,442.438z"/>
		<path fill="#E34A3A" d="M20.908,382.369c0-0.347,0-0.693,0-0.924c-5.66-5.314-12.129-9.704-19.06-13.285
			c-2.31,9.935-2.541,20.446,0,30.958c7.046-3.697,13.4-8.202,19.06-13.516C20.908,384.448,20.908,383.409,20.908,382.369z"/>
		<path fill="#FAA633" d="M69.309,438.395c3.465,3.465,6.815,7.161,9.935,11.089c1.155-0.23,2.31-0.462,3.35-0.693
			c-2.541-5.082-5.66-9.818-9.125-14.093C71.966,435.969,70.58,437.123,69.309,438.395z"/>
		<path fill="#FAA633" d="M42.163,422.338c-7.508,2.31-14.67,5.66-21.255,9.934c7.624,7.277,16.865,12.592,27.031,15.595
			c0.346-7.854-0.347-15.71-2.08-23.449C44.589,423.724,43.318,423.03,42.163,422.338z"/>
		<path fill="#FAA633" d="M58.451,450.062c5.545,0.692,11.205,0.692,16.865,0c-2.657-3.351-5.545-6.47-8.548-9.357
			C63.88,443.708,61.107,446.827,58.451,450.062z"/>
		<path fill="#E34A3A" d="M20.446,413.097c-1.271,4.735-2.772,9.241-4.621,13.746c0.809,0.924,1.501,1.732,2.31,2.656
			c3.003-4.62,5.545-9.587,7.509-14.67C24.027,414.251,22.294,413.674,20.446,413.097z"/>
		<path fill="#E34A3A" d="M19.176,403.509c-5.314-0.809-10.859-1.04-16.403-0.809c0.347,1.155,0.693,2.31,1.155,3.35
			c4.736,0.693,9.472,1.617,14.093,2.888C18.482,407.205,18.829,405.356,19.176,403.509z"/>
		<path fill="#E34A3A" d="M5.313,409.631c2.195,5.198,4.967,9.935,8.202,14.324c1.502-3.812,2.772-7.74,3.812-11.783
			C13.4,411.133,9.357,410.324,5.313,409.631z"/>
		<path fill="#FAA633" d="M60.299,434.813c-3.465,4.39-6.469,9.01-8.895,13.977c1.155,0.231,2.195,0.463,3.35,0.693
			c3.003-3.928,6.238-7.624,9.703-11.089C63.187,437.239,61.801,435.969,60.299,434.813z"/>
		<path fill="#8BC540" d="M88.254,424.07c-1.849,7.739-2.542,15.71-2.08,23.796c10.512-3.119,19.638-8.548,27.031-15.71
			c-6.815-4.39-14.093-7.739-21.717-10.05C90.448,422.8,89.409,423.377,88.254,424.07z"/>
		<path fill="#1C75BB" d="M132.149,367.699c-7.277,3.696-13.746,8.433-19.522,13.862c0,1.155,0,2.311,0,3.465
			c5.776,5.429,12.36,10.166,19.638,13.862C134.691,388.954,134.806,378.21,132.149,367.699z"/>
		<path fill="#8BC540" d="M120.367,424.186c3.466-4.62,6.354-9.588,8.548-15.017c-4.274,0.692-8.433,1.502-12.591,2.656
			C117.479,416.1,118.75,420.258,120.367,424.186z"/>
		<path fill="#8BC540" d="M114.476,403.277c0.347,1.849,0.693,3.581,1.155,5.43c4.852-1.387,9.819-2.311,14.786-3.004
			c0.346-1.039,0.693-2.079,1.04-3.234C125.681,402.238,120.021,402.469,114.476,403.277z"/>
		<path fill="#8BC540" d="M111.241,403.855c-2.079,0.346-4.274,0.924-6.354,1.501c0.578,2.079,1.155,4.159,1.964,6.238
			c1.848-0.693,3.697-1.271,5.545-1.849C111.934,407.782,111.588,405.818,111.241,403.855z"/>
		<path fill="#8BC540" d="M108.007,414.598c2.079,5.198,4.621,10.281,7.739,15.018c0.809-0.809,1.502-1.617,2.195-2.426
			c-1.963-4.736-3.465-9.473-4.736-14.324C111.472,413.442,109.74,414.021,108.007,414.598z"/>
		<path fill="#8BC540" d="M110.664,400.621c-0.693-4.737-1.155-9.357-1.271-14.093c-0.231-0.231-0.578-0.578-0.809-0.809
			c-2.195,2.31-4.159,4.852-6.007,7.393c0.347,3.003,0.924,6.122,1.501,9.01C106.274,401.545,108.469,401.083,110.664,400.621z"/>
		<path fill="#4FADDB" d="M64.227,328.539c-3.465-3.35-6.584-6.931-9.588-10.743c-1.155,0.231-2.195,0.462-3.35,0.693
			c2.542,4.852,5.545,9.472,8.895,13.746C61.57,330.965,62.84,329.694,64.227,328.539z"/>
		<path fill="#1C75BB" d="M113.089,353.837c1.271-4.736,2.772-9.472,4.736-14.093c-0.693-0.809-1.502-1.733-2.311-2.542
			c-3.119,4.736-5.66,9.704-7.624,14.901C109.624,352.682,111.357,353.259,113.089,353.837z"/>
		<path fill="#4FADDB" d="M91.257,344.596c7.624-2.311,14.902-5.66,21.602-10.05c-7.624-7.046-16.865-12.36-26.915-15.248
			c-0.347,8.086,0.347,15.941,2.195,23.565C89.178,343.44,90.217,344.018,91.257,344.596z"/>
		<path fill="#1C75BB" d="M128.799,357.418c-2.31-5.314-5.198-10.281-8.664-14.786c-1.501,3.928-2.888,7.971-3.927,12.129
			C120.367,355.916,124.525,356.725,128.799,357.418z"/>
		<path fill="#9F7AB0" d="M19.06,363.656c-0.347-1.848-0.693-3.581-1.155-5.429c-4.621,1.271-9.356,2.31-14.093,3.003
			c-0.347,1.04-0.809,2.195-1.04,3.35C8.202,364.695,13.746,364.464,19.06,363.656z"/>
		<path fill="#1C75BB" d="M112.858,376.94c3.928-3.465,8.202-6.584,12.822-9.357c-3.928,0-7.855-0.346-11.783-0.924
			C113.32,370.009,112.974,373.475,112.858,376.94z"/>
		<path fill="#4FADDB" d="M74.854,316.987c-5.429-0.693-10.974-0.577-16.519,0.116c2.657,3.234,5.313,6.238,8.317,9.125
			C69.54,323.226,72.312,320.222,74.854,316.987z"/>
		<path fill="#1C75BB" d="M95.185,361.808c1.386,2.657,2.888,5.313,4.505,7.855c0.347-1.964,0.693-3.928,1.155-5.891
			C98.997,363.078,97.033,362.5,95.185,361.808z"/>
		<path fill="#4FADDB" d="M73.237,332.235c3.465-4.274,6.353-9.01,8.895-13.977c-1.155-0.231-2.31-0.462-3.465-0.693
			c-3.003,3.812-6.238,7.509-9.704,10.974C70.349,329.694,71.735,330.965,73.237,332.235z"/>
		<path fill="#9F7AB0" d="M25.645,352.22c-1.964-5.083-4.505-9.935-7.509-14.555c-0.809,0.809-1.617,1.732-2.31,2.657
			c1.848,4.505,3.35,9.01,4.505,13.746C22.179,353.49,23.912,352.913,25.645,352.22z"/>
		<path fill="#9F7AB0" d="M31.074,373.937c-0.347-3.119-0.924-6.122-1.617-9.125c-2.195,0.578-4.39,1.155-6.7,1.501
			c0.693,4.505,1.04,9.01,1.271,13.631c0.346,0.347,0.809,0.693,1.155,1.155C27.377,378.788,29.341,376.478,31.074,373.937z"/>
		<path fill="#9F7AB0" d="M13.4,343.325c-3.234,4.39-6.007,9.241-8.086,14.208c4.043-0.693,7.971-1.501,11.898-2.541
			C16.172,351.064,14.901,347.137,13.4,343.325z"/>
		<path fill="#9F7AB0" d="M45.513,342.748c1.732-7.509,2.426-15.364,2.079-23.334c-10.281,3.119-19.291,8.548-26.684,15.479
			c6.584,4.274,13.862,7.508,21.255,9.703C43.318,344.018,44.474,343.325,45.513,342.748z"/>
		<path fill="#4FADDB" d="M51.058,324.843c-0.115,5.198-0.578,10.396-1.617,15.363c2.772-1.848,5.545-3.812,8.202-6.007
			C55.216,331.312,53.021,328.192,51.058,324.843z"/>
		<path fill="#9F7AB0" d="M22.294,363.078c2.195-0.462,4.274-0.924,6.469-1.501c-0.578-2.08-1.271-4.159-1.964-6.238
			c-1.848,0.693-3.812,1.271-5.66,1.848C21.602,359.15,21.948,361.114,22.294,363.078z"/>
		<path fill="#1C75BB" d="M90.68,348.177c-0.347,0.115-0.693,0.115-0.924,0.231c0.924,3.003,2.079,6.007,3.35,8.895
			c2.772,1.155,5.66,2.195,8.548,3.119c0.578-2.195,1.271-4.274,1.964-6.469c-4.39-1.733-8.548-3.697-12.707-5.892
			C90.795,348.177,90.795,348.177,90.68,348.177z"/>
	</g>
	<g>
		<g>
			<path fill="#FFFFFF" d="M182.514,371.164c-9.588,0-15.941-6.815-15.941-15.941c0-8.664,6.584-15.941,15.941-15.941
				c5.313,0,8.664,1.501,11.783,4.158l-3.466,4.043c-2.426-2.079-4.736-3.35-8.664-3.35c-5.66,0-9.934,4.967-9.934,10.858
				c0,6.353,4.158,11.089,10.512,11.089c2.888,0,5.545-0.924,7.393-2.31v-5.776h-7.855v-4.505h13.168v12.938
				C192.333,368.969,187.943,371.164,182.514,371.164z"/>
			<path fill="#FFFFFF" d="M202.152,370.586v-32.113h5.313v32.113H202.152z"/>
			<path fill="#FFFFFF" d="M225.486,371.164c-7.046,0-12.36-5.429-12.36-12.014c0-6.7,5.314-12.244,12.36-12.244
				c7.162,0,12.36,5.429,12.36,12.129C237.846,365.62,232.648,371.164,225.486,371.164z M225.486,351.526
				c-4.274,0-7.046,3.35-7.046,7.393c0,4.159,3.003,7.509,7.046,7.509c4.274,0,7.046-3.35,7.046-7.393
				S229.645,351.526,225.486,351.526z"/>
			<path fill="#FFFFFF" d="M256.56,371.164c-3.812,0-6.238-1.964-7.855-4.043v3.581h-5.314v-32.229h5.314v12.707
				c1.732-2.426,4.158-4.39,7.855-4.39c5.544,0,10.858,4.39,10.858,12.129C267.302,366.774,262.104,371.164,256.56,371.164z
				 M255.289,351.526c-3.581,0-6.815,3.003-6.815,7.509c0,4.505,3.119,7.508,6.815,7.508c3.697,0,6.7-2.888,6.7-7.508
				C261.873,354.415,258.87,351.526,255.289,351.526z"/>
			<path fill="#FFFFFF" d="M287.056,370.586v-2.888c-1.617,1.848-4.043,3.35-7.509,3.35c-4.39,0-8.317-2.542-8.317-7.162l0,0
				c0-4.967,4.043-7.508,9.472-7.508c2.772,0,4.621,0.346,6.469,0.924v-0.578c0-3.234-2.079-4.967-5.775-4.967
				c-2.542,0-4.505,0.578-6.7,1.501l-1.501-4.274c2.541-1.155,5.083-1.964,8.895-1.964c6.815,0,10.166,3.581,10.166,9.819v13.746
				H287.056z M287.171,360.768c-1.386-0.577-3.234-0.924-5.313-0.924c-3.35,0-5.314,1.386-5.314,3.696v0.116
				c0,2.195,1.964,3.465,4.505,3.465c3.465,0,6.122-1.964,6.122-4.852V360.768L287.171,360.768z"/>
			<path fill="#FFFFFF" d="M298.954,370.586v-32.113h5.313v32.113H298.954z"/>
			<path fill="#FFFFFF" d="M354.517,370.586h-5.776l-3.118-7.393h-14.556l-3.118,7.393h-5.545l13.515-30.958h4.968L354.517,370.586z
				 M338.345,346.098l-5.314,12.36h10.628L338.345,346.098z"/>
			<path fill="#FFFFFF" d="M359.483,370.586v-32.113h5.313v32.113H359.483z"/>
			<path fill="#FFFFFF" d="M372.075,370.586v-32.113h5.313v32.113H372.075z"/>
			<path fill="#FFFFFF" d="M384.435,343.787v-5.083h5.776v5.083H384.435z M384.666,370.586v-23.218h5.313v23.218H384.666z"/>
			<path fill="#FFFFFF" d="M411.119,370.586v-2.888c-1.617,1.848-4.043,3.35-7.509,3.35c-4.39,0-8.317-2.542-8.317-7.162l0,0
				c0-4.967,4.043-7.508,9.473-7.508c2.772,0,4.62,0.346,6.469,0.924v-0.578c0-3.234-2.079-4.967-5.775-4.967
				c-2.542,0-4.506,0.578-6.7,1.501l-1.502-4.274c2.542-1.155,5.083-1.964,8.895-1.964c6.815,0,10.166,3.581,10.166,9.819v13.746
				H411.119z M411.234,360.768c-1.386-0.577-3.234-0.924-5.313-0.924c-3.351,0-5.313,1.386-5.313,3.696v0.116
				c0,2.195,1.963,3.465,4.505,3.465c3.465,0,6.122-1.964,6.122-4.852V360.768L411.234,360.768z"/>
			<path fill="#FFFFFF" d="M428.1,370.586h-5.313v-23.218h5.313v3.581c1.502-2.195,3.696-4.043,7.277-4.043
				c5.198,0,8.317,3.465,8.317,8.895v14.786h-5.313v-13.168c0-3.581-1.849-5.66-4.968-5.66c-3.118,0-5.198,2.195-5.198,5.775v13.053
				H428.1z"/>
			<path fill="#FFFFFF" d="M460.79,371.164c-6.931,0-12.013-5.429-12.013-12.014c0-6.584,5.082-12.244,12.013-12.244
				c4.39,0,7.162,1.617,9.241,4.043l-3.35,3.581c-1.617-1.733-3.35-2.888-6.007-2.888c-3.928,0-6.7,3.35-6.7,7.393
				c0,4.159,2.889,7.508,6.932,7.508c2.541,0,4.39-1.155,6.007-2.888l3.234,3.119C467.952,369.316,465.296,371.164,460.79,371.164z"
				/>
			<path fill="#FFFFFF" d="M485.164,366.774c2.541,0,4.39-0.924,6.354-2.772l3.119,2.772c-2.195,2.657-5.198,4.39-9.473,4.39
				c-6.699,0-11.897-4.852-11.897-12.129c0-6.7,4.735-12.129,11.32-12.129c7.393,0,11.089,5.775,11.089,12.591
				c0,0.462,0,0.924-0.115,1.502h-17.096C479.157,364.695,481.814,366.774,485.164,366.774z M490.362,357.418
				c-0.347-3.465-2.426-6.123-5.892-6.123c-3.234,0-5.544,2.542-6.007,6.123H490.362z"/>
			<path fill="#FFFFFF" d="M178.24,398.311v2.656h-6.584v18.137h-3.003v-18.137h-2.888v-2.656h2.888v-1.849
				c0-4.505,2.31-6.931,6.238-6.931c1.501,0,2.426,0.115,3.465,0.578v2.657c-1.155-0.347-1.964-0.578-3.003-0.578
				c-2.426,0-3.581,1.501-3.581,4.389v1.733H178.24z"/>
			<path fill="#FFFFFF" d="M191.293,419.565c-6.238,0-10.858-4.968-10.858-10.858c0-5.892,4.621-10.975,10.858-10.975
				s10.858,4.968,10.858,10.858C202.267,414.482,197.646,419.565,191.293,419.565z M191.293,400.505
				c-4.505,0-7.624,3.581-7.624,8.086c0,4.506,3.35,8.202,7.739,8.202c4.505,0,7.624-3.581,7.624-8.086
				C199.148,404.086,195.798,400.505,191.293,400.505z"/>
			<path fill="#FFFFFF" d="M211.046,418.987h-3.119v-20.793h3.119v5.43c1.502-3.466,4.505-6.007,8.548-5.775v3.35h-0.231
				c-4.505,0-8.317,3.234-8.317,9.588V418.987z"/>
			<path fill="#FFFFFF" d="M249.975,419.565c-8.895,0-14.324-6.469-14.324-14.556c0-7.739,5.66-14.67,14.208-14.67
				c4.736,0,7.74,1.386,10.512,3.696l-2.08,2.426c-2.194-1.848-4.621-3.234-8.548-3.234c-6.238,0-10.743,5.313-10.743,11.667
				c0,6.815,4.274,11.783,11.205,11.783c3.234,0,6.238-1.271,8.202-2.772v-7.047h-8.548v-2.888h11.667v11.205
				C258.639,417.602,254.711,419.565,249.975,419.565z"/>
			<path fill="#FFFFFF" d="M277.121,416.793c2.888,0,4.852-1.155,6.584-2.888l1.964,1.732c-2.08,2.311-4.621,3.928-8.548,3.928
				c-5.776,0-10.396-4.39-10.396-10.858c0-6.007,4.274-10.858,10.05-10.858c6.123,0,9.704,4.967,9.704,11.089
				c0,0.231,0,0.578,0,0.925h-16.519C270.19,414.251,273.425,416.793,277.121,416.793z M283.244,407.436
				c-0.347-3.812-2.542-7.046-6.7-7.046c-3.581,0-6.353,3.003-6.815,7.046H283.244z"/>
			<path fill="#FFFFFF" d="M294.911,418.987h-3.119v-20.793h3.119v3.581c1.386-2.31,3.581-4.043,7.162-4.043
				c5.083,0,7.971,3.351,7.971,8.317v12.938h-3.119v-12.129c0-3.928-2.079-6.237-5.775-6.237c-3.581,0-6.238,2.656-6.238,6.584
				V418.987L294.911,418.987z"/>
			<path fill="#FFFFFF" d="M326.215,419.565c-6.237,0-10.858-4.968-10.858-10.858c0-5.892,4.621-10.975,10.858-10.975
				c6.238,0,10.858,4.968,10.858,10.858C337.073,414.482,332.453,419.565,326.215,419.565z M326.215,400.505
				c-4.505,0-7.624,3.581-7.624,8.086c0,4.506,3.351,8.202,7.74,8.202c4.505,0,7.624-3.581,7.624-8.086
				C333.955,404.086,330.604,400.505,326.215,400.505z"/>
			<path fill="#FFFFFF" d="M366.53,397.732c4.852,0,7.739,3.234,7.739,8.433v12.938h-3.119v-12.245c0-4.043-1.964-6.237-5.429-6.237
				c-3.119,0-5.776,2.31-5.776,6.469v12.014h-3.003v-12.36c0-3.928-2.079-6.238-5.313-6.238c-3.351,0-5.776,2.772-5.776,6.585
				v11.897h-3.119v-20.793h3.119v3.466c1.387-2.079,3.234-3.928,6.7-3.928c3.35,0,5.545,1.849,6.7,4.159
				C360.754,399.581,362.949,397.732,366.53,397.732z"/>
			<path fill="#FFFFFF" d="M381.2,393.574v-3.465h3.581v3.465H381.2z M381.316,418.987v-20.793h3.118v20.793H381.316z"/>
			<path fill="#FFFFFF" d="M401.069,419.565c-6.122,0-10.743-4.968-10.743-10.858c0-5.892,4.621-10.975,10.743-10.975
				c3.928,0,6.354,1.617,8.317,3.697l-2.08,2.194c-1.617-1.732-3.465-3.119-6.354-3.119c-4.273,0-7.508,3.581-7.508,8.086
				c0,4.506,3.35,8.202,7.624,8.202c2.656,0,4.736-1.387,6.354-3.119l1.964,1.849C407.423,417.832,404.997,419.565,401.069,419.565z
				"/>
			<path fill="#FFFFFF" d="M421.631,419.449c-3.004,0-6.238-1.154-8.664-3.118l1.617-2.195c2.311,1.732,4.736,2.657,7.162,2.657
				c2.542,0,4.274-1.271,4.274-3.351v-0.115c0-2.079-2.426-2.888-5.198-3.696c-3.234-0.924-6.931-2.079-6.931-5.892v-0.115
				c0-3.581,3.003-6.007,7.046-6.007c2.542,0,5.314,0.924,7.509,2.311l-1.386,2.311c-1.964-1.271-4.159-1.964-6.123-1.964
				c-2.426,0-4.043,1.271-4.043,3.003v0.115c0,1.964,2.542,2.772,5.313,3.581c3.234,0.925,6.7,2.195,6.7,6.007v0.116
				C429.023,417.14,425.789,419.449,421.631,419.449z"/>
			<path fill="#FFFFFF" d="M490.709,406.281v12.706h-3.234v-28.186h3.234v12.591h16.288v-12.591h3.234v28.186h-3.234v-12.706
				H490.709L490.709,406.281z"/>
			<path fill="#FFFFFF" d="M526.865,416.793c2.888,0,4.852-1.155,6.584-2.888l1.964,1.732c-2.079,2.311-4.62,3.928-8.548,3.928
				c-5.775,0-10.396-4.39-10.396-10.858c0-6.007,4.274-10.858,10.05-10.858c6.122,0,9.703,4.967,9.703,11.089
				c0,0.231,0,0.578,0,0.925h-16.519C520.05,414.251,523.284,416.793,526.865,416.793z M532.987,407.436
				c-0.347-3.812-2.541-7.046-6.699-7.046c-3.581,0-6.354,3.003-6.815,7.046H532.987z"/>
			<path fill="#FFFFFF" d="M542.807,402.122l-0.925-2.541c2.311-1.04,4.506-1.732,7.624-1.732c5.66,0,8.896,2.888,8.896,8.433
				v12.706h-3.004v-3.119c-1.502,1.849-3.928,3.581-7.509,3.581c-3.812,0-7.739-2.194-7.739-6.584s3.581-6.815,8.895-6.815
				c2.657,0,4.505,0.347,6.469,0.924v-0.692c0-3.697-2.31-5.66-6.237-5.66C546.618,400.621,544.771,401.313,542.807,402.122z
				 M543.153,412.865c0,2.657,2.426,4.158,5.198,4.158c3.812,0,6.931-2.31,6.931-5.66v-1.964c-1.502-0.462-3.581-0.924-6.122-0.924
				C545.348,408.476,543.153,410.208,543.153,412.865z"/>
			<path fill="#FFFFFF" d="M565.217,418.987v-29.341h3.118v29.457h-3.118V418.987z"/>
			<path fill="#FFFFFF" d="M579.771,413.097c0,2.541,1.386,3.465,3.465,3.465c1.04,0,1.964-0.23,3.004-0.693v2.657
				c-1.04,0.578-2.311,0.924-3.696,0.924c-3.351,0-5.892-1.617-5.892-5.891v-12.592h-2.888v-2.772h2.888v-6.237h3.119v6.237h6.584
				v2.772h-6.584V413.097z"/>
			<path fill="#FFFFFF" d="M594.903,418.987h-3.118v-29.341h3.118v12.245c1.387-2.311,3.581-4.043,7.162-4.043
				c5.083,0,7.971,3.35,7.971,8.316v12.938h-3.119v-12.245c0-3.928-2.079-6.237-5.775-6.237c-3.581,0-6.238,2.656-6.238,6.584
				V418.987z"/>
		</g>
		<path fill="#FFFFFF" d="M465.18,404.433v-3.466h-3.118v3.466h-4.852c-4.39,0-4.853-2.888-4.853-4.158
			c0-2.426,1.849-4.043,4.736-4.043c0.693,0,1.387,0.115,1.733,0.23l0.809-2.426c-0.463-0.115-1.733-0.347-2.772-0.347
			c-4.621,0-7.624,2.542-7.624,6.354c0,4.158,3.118,5.313,3.234,5.313l0.809,0.231l-0.809,0.23
			c-2.542,0.809-4.274,3.351-4.274,6.354c0,4.274,3.581,7.277,8.548,7.277c5.314,0,8.549-3.234,8.549-8.663v-3.581h3.35v-2.657
			h-3.466V404.433z M461.715,410.671c0,3.696-1.849,5.66-5.198,5.66c-3.004,0-5.083-1.849-5.083-4.39
			c0-2.772,2.079-4.39,5.545-4.506h4.852L461.715,410.671z"/>
	</g>
</g>
</svg>
