<?xml version="1.0" encoding="UTF-8" standalone="no"?>
<!-- Generator: Adobe Illustrator 18.1.0, SVG Export Plug-In . SVG Version: 6.00 Build 0)  -->

<svg
   xmlns:dc="http://purl.org/dc/elements/1.1/"
   xmlns:cc="http://creativecommons.org/ns#"
   xmlns:rdf="http://www.w3.org/1999/02/22-rdf-syntax-ns#"
   xmlns:svg="http://www.w3.org/2000/svg"
   xmlns="http://www.w3.org/2000/svg"
   xmlns:sodipodi="http://sodipodi.sourceforge.net/DTD/sodipodi-0.dtd"
   xmlns:inkscape="http://www.inkscape.org/namespaces/inkscape"
   version="1.1"
   id="Layer_1"
   x="0px"
   y="0px"
   viewBox="0 0 526.6515 127.72066"
   enable-background="new 0 0 529.8 137.6"
   xml:space="preserve"
   sodipodi:docname="GA-logo.svg"
   width="526.65149"
   height="127.72067"
   inkscape:version="0.92.4 (5da689c313, 2019-01-14)"
   inkscape:export-filename="/home/reece/projects/ga4gh/vrs-python/vrs/docs/source/images/GA-logo.svg.png"
   inkscape:export-xdpi="96"
   inkscape:export-ydpi="96"><metadata
   id="metadata265"><rdf:RDF><cc:Work
       rdf:about=""><dc:format>image/svg+xml</dc:format><dc:type
         rdf:resource="http://purl.org/dc/dcmitype/StillImage" /><dc:title /></cc:Work></rdf:RDF></metadata><defs
   id="defs263">
			
			
			
			
			
			
			
			
			
			
			
			
			
			
			
			
			
			
			
			
			
			
			
			
			
			
			
			
			
			
			
		</defs><sodipodi:namedview
   pagecolor="#ffffff"
   bordercolor="#666666"
   borderopacity="1"
   objecttolerance="10"
   gridtolerance="10"
   guidetolerance="10"
   inkscape:pageopacity="0"
   inkscape:pageshadow="2"
   inkscape:window-width="2560"
   inkscape:window-height="1376"
   id="namedview261"
   showgrid="false"
   showguides="false"
   fit-margin-top="5"
   fit-margin-left="5"
   fit-margin-right="5"
   fit-margin-bottom="5"
   inkscape:pagecheckerboard="true"
   inkscape:zoom="4.3026065"
   inkscape:cx="1.4098029"
   inkscape:cy="71.052745"
   inkscape:window-x="0"
   inkscape:window-y="27"
   inkscape:window-maximized="1"
   inkscape:current-layer="g4976" />
<g
   id="g258"
   transform="translate(3.8514894,5.8167795)">
	<g
   id="g4976"><circle
     inkscape:export-ydpi="96"
     inkscape:export-xdpi="96"
     r="58.429546"
     cy="58.043556"
     cx="60.008846"
     id="path3910"
     style="fill:#fcfcfc;fill-opacity:1;stroke:#ffffff;stroke-width:4;stroke-miterlimit:4;stroke-dasharray:none;stroke-opacity:1" /><g
     transform="translate(2)"
     id="g122">
		<path
   style="fill:#4faedc"
   inkscape:connector-curvature="0"
   id="path2"
   d="m 59.8,21.9 c 2,1.8 4.1,3.5 6.3,5.1 2.7,-0.3 5.4,-0.8 8.1,-1.4 -0.1,-0.3 -0.2,-0.7 -0.3,-1 -3.5,-2.1 -6.9,-4.5 -10.1,-7 -1.3,1.5 -2.6,2.9 -4,4.3 z" />
		<path
   style="fill:#e34a3b"
   inkscape:connector-curvature="0"
   id="path4"
   d="m 32.9,89.7 c -2.6,-1.3 -5.3,-2.5 -8,-3.5 -1.2,3.1 -2.7,6.2 -4.3,9.1 4,-2.2 8.1,-4.1 12.3,-5.6 z" />
		<path
   style="fill:#4faedc"
   inkscape:connector-curvature="0"
   id="path6"
   d="M 72.9,20.7 C 72,16.2 71.5,11.5 71.4,6.8 c -1.8,3 -3.7,5.9 -5.9,8.6 2.4,1.8 4.9,3.6 7.4,5.3 z" />
		<path
   style="fill:#e34a3b"
   inkscape:connector-curvature="0"
   id="path8"
   d="m 37.3,88.3 c 0.3,-0.1 0.6,-0.2 0.9,-0.2 -0.8,-2.5 -1.7,-5 -2.8,-7.4 -2.5,-1.1 -5.1,-2 -7.7,-2.9 -0.5,1.9 -1.1,3.8 -1.7,5.7 3.7,1.4 7.3,3.1 10.8,5 0.2,-0.1 0.3,-0.1 0.5,-0.2 z" />
		<path
   style="fill:#e34a3b"
   inkscape:connector-curvature="0"
   id="path10"
   d="m 31.2,72.4 c -0.6,-1 -1.2,-1.9 -1.8,-2.9 -0.3,1.8 -0.6,3.7 -1,5.5 1.8,0.5 3.5,1.1 5.2,1.8 -0.7,-1.4 -1.5,-2.9 -2.4,-4.4 z" />
		<path
   style="fill:#e34a3b"
   inkscape:connector-curvature="0"
   id="path12"
   d="m 17.9,63.7 c -3.4,3 -7.1,5.6 -11,8 3.4,0 6.8,0.3 10.1,0.8 0.5,-2.9 0.8,-5.8 0.9,-8.8 z" />
		<path
   style="fill:#e34a3b"
   inkscape:connector-curvature="0"
   id="path14"
   d="m 25,77 c -1.8,-0.5 -3.7,-0.9 -5.5,-1.3 -0.3,1.7 -0.6,3.4 -1,5.1 1.6,0.5 3.3,1 4.9,1.6 0.5,-1.7 1.1,-3.5 1.6,-5.4 z" />
		<path
   style="fill:#9f7ab0"
   inkscape:connector-curvature="0"
   id="path16"
   d="m 28.3,41 c 0.4,1.7 0.7,3.5 1,5.3 1.5,-2.3 2.9,-4.6 4.1,-7 -1.7,0.6 -3.4,1.1 -5.1,1.7 z" />
		<path
   style="fill:#4faedc"
   inkscape:connector-curvature="0"
   id="path18"
   d="M 61.8,27.3 C 60.4,26.2 59,25 57.7,23.8 c -1.3,1.2 -2.6,2.4 -4,3.5 2.7,0.2 5.4,0.2 8.1,0 z" />
		<path
   style="fill:#1b75bb"
   inkscape:connector-curvature="0"
   id="path20"
   d="m 82.6,26.2 c 2.7,1.3 5.4,2.5 8.1,3.6 1.2,-3.1 2.7,-6.2 4.3,-9.2 -4,2.2 -8.1,4.1 -12.4,5.6 z" />
		<path
   style="fill:#9f7ab0"
   inkscape:connector-curvature="0"
   id="path22"
   d="m 24.9,29.9 c 2.8,-1.1 5.5,-2.4 8.2,-3.7 -4.4,-1.5 -8.6,-3.4 -12.7,-5.6 1.7,3 3.2,6.1 4.5,9.3 z" />
		<path
   style="fill:#4faedc"
   inkscape:connector-curvature="0"
   id="path24"
   d="m 57.7,12.3 c -1.2,1.2 -2.5,2.3 -3.8,3.4 1.2,1.4 2.5,2.8 3.9,4.1 1.3,-1.3 2.6,-2.7 3.8,-4.1 -1.4,-1 -2.7,-2.2 -3.9,-3.4 z" />
		<path
   style="fill:#4faedc"
   inkscape:connector-curvature="0"
   id="path26"
   d="m 55.7,21.9 c -1.4,-1.4 -2.7,-2.8 -4,-4.3 -3.1,2.5 -6.4,4.8 -9.8,6.9 -0.1,0.4 -0.2,0.8 -0.3,1.2 2.6,0.6 5.3,1 8,1.3 2.1,-1.6 4.1,-3.3 6.1,-5.1 z" />
		<path
   style="fill:#f9a533"
   inkscape:connector-curvature="0"
   id="path28"
   d="m 53.7,88.5 c 1.4,1.1 2.8,2.3 4.2,3.6 1.3,-1.2 2.7,-2.5 4.1,-3.6 -2.7,-0.2 -5.5,-0.2 -8.3,0 z" />
		<path
   style="fill:#f9a533"
   inkscape:connector-curvature="0"
   id="path30"
   d="m 43,95.5 c 0.8,4.4 1.3,8.8 1.4,13.2 1.7,-2.8 3.6,-5.6 5.6,-8.2 -2.2,-1.7 -4.6,-3.4 -7,-5 z" />
		<path
   style="fill:#f9a533"
   inkscape:connector-curvature="0"
   id="path32"
   d="m 57.9,103.6 c 1.3,-1.2 2.5,-2.3 3.9,-3.5 -1.2,-1.4 -2.5,-2.8 -3.8,-4.1 -1.3,1.3 -2.6,2.7 -3.9,4.2 1.3,1.1 2.5,2.2 3.8,3.4 z" />
		<path
   style="fill:#f9a533"
   inkscape:connector-curvature="0"
   id="path34"
   d="m 55.9,94 c -2,-1.9 -4.1,-3.6 -6.4,-5.2 -2.6,0.3 -5.2,0.7 -7.7,1.3 0.1,0.5 0.3,1 0.4,1.4 3.3,2.1 6.6,4.3 9.7,6.8 1.2,-1.4 2.6,-2.9 4,-4.3 z" />
		<path
   style="fill:#1b75bb"
   inkscape:connector-curvature="0"
   id="path36"
   d="m 97.2,35.1 c -1.6,-0.5 -3.2,-1 -4.8,-1.6 -0.6,1.8 -1.2,3.6 -1.6,5.4 1.8,0.5 3.6,0.9 5.5,1.2 0.2,-1.7 0.5,-3.4 0.9,-5 z" />
		<path
   style="fill:#1b75bb"
   inkscape:connector-curvature="0"
   id="path38"
   d="m 99,40.6 c 4.8,0.7 9.7,0.9 14.6,0.7 -0.3,-0.9 -0.6,-1.9 -0.9,-2.8 -4.3,-0.6 -8.5,-1.4 -12.7,-2.6 -0.4,1.5 -0.7,3.1 -1,4.7 z" />
		<path
   style="fill:#8bc53f"
   inkscape:connector-curvature="0"
   id="path40"
   d="m 109,71.5 c -4,-2.4 -7.8,-5.1 -11.3,-8.2 0.2,3 0.5,6 0.9,9 3.4,-0.5 6.9,-0.8 10.4,-0.8 z" />
		<path
   style="fill:#9f7ab0"
   inkscape:connector-curvature="0"
   id="path42"
   d="m 7.1,44.4 c 3.8,2.3 7.4,4.9 10.8,7.8 -0.2,-2.9 -0.5,-5.8 -0.9,-8.6 -3.3,0.5 -6.6,0.7 -9.9,0.8 z" />
		<path
   style="fill:#1b75bb"
   inkscape:connector-curvature="0"
   id="path44"
   d="m 94.7,55 c 0.1,-4.1 0.5,-8.1 1,-12.1 -1.9,-0.4 -3.8,-0.8 -5.7,-1.3 -0.6,2.6 -1,5.2 -1.3,7.8 1.6,2.2 3.4,4.3 5.2,6.3 0.3,-0.2 0.6,-0.4 0.8,-0.7 z" />
		<path
   style="fill:#8bc53f"
   inkscape:connector-curvature="0"
   id="path46"
   d="M 90.8,85.9 C 88,87 85.4,88.2 82.7,89.5 87,91 91.2,92.8 95.1,95 93.5,92.1 92,89 90.8,85.9 Z" />
		<path
   style="fill:#f9a533"
   inkscape:connector-curvature="0"
   id="path48"
   d="m 60,94 c 1.4,1.4 2.7,2.8 4,4.3 3.2,-2.6 6.5,-4.9 10,-7.1 0.1,-0.4 0.2,-0.7 0.3,-1.1 -2.6,-0.6 -5.3,-1 -8,-1.3 C 64.1,90.4 62,92.2 60,94 Z" />
		<path
   style="fill:#e34a3b"
   inkscape:connector-curvature="0"
   id="path50"
   d="M 27,66.1 C 25.4,64 23.7,61.9 21.9,60 c -0.3,0.3 -0.7,0.7 -1,1 -0.1,4 -0.4,8 -1,12 1.9,0.4 3.9,0.8 5.8,1.3 0.5,-2.7 1,-5.4 1.3,-8.2 z" />
		<path
   style="fill:#8bc53f"
   inkscape:connector-curvature="0"
   id="path52"
   d="m 86.4,69.7 c -1.4,2.2 -2.8,4.5 -4,6.9 1.6,-0.6 3.3,-1.2 5,-1.7 -0.4,-1.7 -0.8,-3.4 -1,-5.2 z" />
		<path
   style="fill:#8bc53f"
   inkscape:connector-curvature="0"
   id="path54"
   d="m 89.8,83.3 c -0.7,-1.9 -1.2,-3.7 -1.7,-5.6 -2.5,0.8 -5,1.7 -7.4,2.8 -1.1,2.5 -2,5 -2.8,7.6 0.4,0.1 0.7,0.2 1.1,0.3 3.4,-1.9 7.1,-3.7 10.8,-5.1 z" />
		<path
   style="fill:#9f7ab0"
   inkscape:connector-curvature="0"
   id="path56"
   d="m 38,27.7 c -0.4,-0.1 -0.7,-0.2 -1.1,-0.3 -3.6,1.9 -7.2,3.7 -11,5.2 0.7,1.8 1.2,3.7 1.8,5.6 2.6,-0.8 5.1,-1.8 7.6,-2.9 1,-2.4 1.9,-5 2.7,-7.6 z" />
		<path
   style="fill:#f9a533"
   inkscape:connector-curvature="0"
   id="path58"
   d="m 71.7,109 c 0,-4.7 0.5,-9.3 1.4,-13.8 -2.5,1.7 -4.9,3.4 -7.3,5.3 2.1,2.7 4.1,5.5 5.9,8.5 z" />
		<path
   style="fill:#e34a3b"
   inkscape:connector-curvature="0"
   id="path60"
   d="m 18.1,57 c 0,-0.3 0,-0.6 0,-0.8 C 13.2,51.6 7.6,47.8 1.6,44.7 c -2,8.6 -2.2,17.7 0,26.8 6.1,-3.2 11.6,-7.1 16.5,-11.7 0,-1 0,-1.9 0,-2.8 z" />
		<path
   style="fill:#f9a533"
   inkscape:connector-curvature="0"
   id="path62"
   d="m 60,105.5 c 3,3 5.9,6.2 8.6,9.6 1,-0.2 2,-0.4 2.9,-0.6 -2.2,-4.4 -4.9,-8.5 -7.9,-12.2 -1.3,1.1 -2.5,2.1 -3.6,3.2 z" />
		<path
   style="fill:#f9a533"
   inkscape:connector-curvature="0"
   id="path64"
   d="m 36.5,91.6 c -6.5,2 -12.7,4.9 -18.4,8.6 6.6,6.3 14.6,10.9 23.4,13.5 0.3,-6.8 -0.3,-13.6 -1.8,-20.3 -1.1,-0.6 -2.2,-1.2 -3.2,-1.8 z" />
		<path
   style="fill:#f9a533"
   inkscape:connector-curvature="0"
   id="path66"
   d="m 50.6,115.6 c 4.8,0.6 9.7,0.6 14.6,0 -2.3,-2.9 -4.8,-5.6 -7.4,-8.1 -2.5,2.6 -4.9,5.3 -7.2,8.1 z" />
		<path
   style="fill:#e34a3b"
   inkscape:connector-curvature="0"
   id="path68"
   d="m 17.7,83.6 c -1.1,4.1 -2.4,8 -4,11.9 0.7,0.8 1.3,1.5 2,2.3 2.6,-4 4.8,-8.3 6.5,-12.7 -1.4,-0.5 -2.9,-1 -4.5,-1.5 z" />
		<path
   style="fill:#e34a3b"
   inkscape:connector-curvature="0"
   id="path70"
   d="M 16.6,75.3 C 12,74.6 7.2,74.4 2.4,74.6 c 0.3,1 0.6,2 1,2.9 4.1,0.6 8.2,1.4 12.2,2.5 0.4,-1.5 0.7,-3.1 1,-4.7 z" />
		<path
   style="fill:#e34a3b"
   inkscape:connector-curvature="0"
   id="path72"
   d="M 4.6,80.6 C 6.5,85.1 8.9,89.2 11.7,93 13,89.7 14.1,86.3 15,82.8 11.6,81.9 8.1,81.2 4.6,80.6 Z" />
		<path
   style="fill:#f9a533"
   inkscape:connector-curvature="0"
   id="path74"
   d="m 52.2,102.4 c -3,3.8 -5.6,7.8 -7.7,12.1 1,0.2 1.9,0.4 2.9,0.6 2.6,-3.4 5.4,-6.6 8.4,-9.6 -1.1,-1 -2.3,-2.1 -3.6,-3.1 z" />
		<path
   style="fill:#8bc53f"
   inkscape:connector-curvature="0"
   id="path76"
   d="m 76.4,93.1 c -1.6,6.7 -2.2,13.6 -1.8,20.6 9.1,-2.7 17,-7.4 23.4,-13.6 -5.9,-3.8 -12.2,-6.7 -18.8,-8.7 -0.9,0.6 -1.8,1.1 -2.8,1.7 z" />
		<path
   style="fill:#1b75bb"
   inkscape:connector-curvature="0"
   id="path78"
   d="m 114.4,44.3 c -6.3,3.2 -11.9,7.3 -16.9,12 0,1 0,2 0,3 5,4.7 10.7,8.8 17,12 2.1,-8.6 2.2,-17.9 -0.1,-27 z" />
		<path
   style="fill:#8bc53f"
   inkscape:connector-curvature="0"
   id="path80"
   d="m 104.2,93.2 c 3,-4 5.5,-8.3 7.4,-13 -3.7,0.6 -7.3,1.3 -10.9,2.3 1,3.7 2.1,7.3 3.5,10.7 z" />
		<path
   style="fill:#8bc53f"
   inkscape:connector-curvature="0"
   id="path82"
   d="m 99.1,75.1 c 0.3,1.6 0.6,3.1 1,4.7 4.2,-1.2 8.5,-2 12.8,-2.6 0.3,-0.9 0.6,-1.8 0.9,-2.8 -5,-0.2 -9.9,0 -14.7,0.7 z" />
		<path
   style="fill:#8bc53f"
   inkscape:connector-curvature="0"
   id="path84"
   d="m 96.3,75.6 c -1.8,0.3 -3.7,0.8 -5.5,1.3 0.5,1.8 1,3.6 1.7,5.4 1.6,-0.6 3.2,-1.1 4.8,-1.6 -0.4,-1.7 -0.7,-3.4 -1,-5.1 z" />
		<path
   style="fill:#8bc53f"
   inkscape:connector-curvature="0"
   id="path86"
   d="m 93.5,84.9 c 1.8,4.5 4,8.9 6.7,13 0.7,-0.7 1.3,-1.4 1.9,-2.1 -1.7,-4.1 -3,-8.2 -4.1,-12.4 -1.5,0.5 -3,1 -4.5,1.5 z" />
		<path
   style="fill:#8bc53f"
   inkscape:connector-curvature="0"
   id="path88"
   d="m 95.8,72.8 c -0.6,-4.1 -1,-8.1 -1.1,-12.2 -0.2,-0.2 -0.5,-0.5 -0.7,-0.7 -1.9,2 -3.6,4.2 -5.2,6.4 0.3,2.6 0.8,5.3 1.3,7.8 1.9,-0.5 3.8,-0.9 5.7,-1.3 z" />
		<path
   style="fill:#4faedc"
   inkscape:connector-curvature="0"
   id="path90"
   d="m 55.6,10.4 c -3,-2.9 -5.7,-6 -8.3,-9.3 -1,0.2 -1.9,0.4 -2.9,0.6 2.2,4.2 4.8,8.2 7.7,11.9 1.2,-1.1 2.3,-2.2 3.5,-3.2 z" />
		<path
   style="fill:#1b75bb"
   inkscape:connector-curvature="0"
   id="path92"
   d="m 97.9,32.3 c 1.1,-4.1 2.4,-8.2 4.1,-12.2 -0.6,-0.7 -1.3,-1.5 -2,-2.2 -2.7,4.1 -4.9,8.4 -6.6,12.9 1.5,0.5 3,1 4.5,1.5 z" />
		<path
   style="fill:#4faedc"
   inkscape:connector-curvature="0"
   id="path94"
   d="m 79,24.3 c 6.6,-2 12.9,-4.9 18.7,-8.7 C 91.1,9.5 83.1,4.9 74.4,2.4 c -0.3,7 0.3,13.8 1.9,20.4 0.9,0.5 1.8,1 2.7,1.5 z" />
		<path
   style="fill:#1b75bb"
   inkscape:connector-curvature="0"
   id="path96"
   d="m 111.5,35.4 c -2,-4.6 -4.5,-8.9 -7.5,-12.8 -1.3,3.4 -2.5,6.9 -3.4,10.5 3.6,1 7.2,1.7 10.9,2.3 z" />
		<path
   style="fill:#9f7ab0"
   inkscape:connector-curvature="0"
   id="path98"
   d="m 16.5,40.8 c -0.3,-1.6 -0.6,-3.1 -1,-4.7 -4,1.1 -8.1,2 -12.2,2.6 -0.3,0.9 -0.7,1.9 -0.9,2.9 4.7,0.1 9.5,-0.1 14.1,-0.8 z" />
		<path
   style="fill:#1b75bb"
   inkscape:connector-curvature="0"
   id="path100"
   d="m 97.7,52.3 c 3.4,-3 7.1,-5.7 11.1,-8.1 -3.4,0 -6.8,-0.3 -10.2,-0.8 -0.5,2.9 -0.8,5.9 -0.9,8.9 z" />
		<path
   style="fill:#4faedc"
   inkscape:connector-curvature="0"
   id="path102"
   d="m 64.8,0.4 c -4.7,-0.6 -9.5,-0.5 -14.3,0.1 2.3,2.8 4.6,5.4 7.2,7.9 2.5,-2.6 4.9,-5.2 7.1,-8 z" />
		<path
   style="fill:#1b75bb"
   inkscape:connector-curvature="0"
   id="path104"
   d="m 82.4,39.2 c 1.2,2.3 2.5,4.6 3.9,6.8 0.3,-1.7 0.6,-3.4 1,-5.1 -1.6,-0.6 -3.3,-1.1 -4.9,-1.7 z" />
		<path
   style="fill:#4faedc"
   inkscape:connector-curvature="0"
   id="path106"
   d="m 63.4,13.6 c 3,-3.7 5.5,-7.8 7.7,-12.1 -1,-0.2 -2,-0.4 -3,-0.6 -2.6,3.3 -5.4,6.5 -8.4,9.5 1.2,1 2.4,2.1 3.7,3.2 z" />
		<path
   style="fill:#9f7ab0"
   inkscape:connector-curvature="0"
   id="path108"
   d="m 22.2,30.9 c -1.7,-4.4 -3.9,-8.6 -6.5,-12.6 -0.7,0.7 -1.4,1.5 -2,2.3 1.6,3.9 2.9,7.8 3.9,11.9 1.6,-0.5 3.1,-1 4.6,-1.6 z" />
		<path
   style="fill:#9f7ab0"
   inkscape:connector-curvature="0"
   id="path110"
   d="m 26.9,49.7 c -0.3,-2.7 -0.8,-5.3 -1.4,-7.9 -1.9,0.5 -3.8,1 -5.8,1.3 0.6,3.9 0.9,7.8 1.1,11.8 0.3,0.3 0.7,0.6 1,1 1.9,-2 3.6,-4 5.1,-6.2 z" />
		<path
   style="fill:#9f7ab0"
   inkscape:connector-curvature="0"
   id="path112"
   d="m 11.6,23.2 c -2.8,3.8 -5.2,8 -7,12.3 3.5,-0.6 6.9,-1.3 10.3,-2.2 -0.9,-3.4 -2,-6.8 -3.3,-10.1 z" />
		<path
   style="fill:#9f7ab0"
   inkscape:connector-curvature="0"
   id="path114"
   d="M 39.4,22.7 C 40.9,16.2 41.5,9.4 41.2,2.5 32.3,5.2 24.5,9.9 18.1,15.9 c 5.7,3.7 12,6.5 18.4,8.4 1,-0.5 2,-1.1 2.9,-1.6 z" />
		<path
   style="fill:#4faedc"
   inkscape:connector-curvature="0"
   id="path116"
   d="m 44.2,7.2 c -0.1,4.5 -0.5,9 -1.4,13.3 2.4,-1.6 4.8,-3.3 7.1,-5.2 -2.1,-2.5 -4,-5.2 -5.7,-8.1 z" />
		<path
   style="fill:#9f7ab0"
   inkscape:connector-curvature="0"
   id="path118"
   d="m 19.3,40.3 c 1.9,-0.4 3.7,-0.8 5.6,-1.3 -0.5,-1.8 -1.1,-3.6 -1.7,-5.4 -1.6,0.6 -3.3,1.1 -4.9,1.6 0.4,1.7 0.7,3.4 1,5.1 z" />
		<path
   style="fill:#1b75bb"
   inkscape:connector-curvature="0"
   id="path120"
   d="m 78.5,27.4 c -0.3,0.1 -0.6,0.1 -0.8,0.2 0.8,2.6 1.8,5.2 2.9,7.7 2.4,1 4.9,1.9 7.4,2.7 0.5,-1.9 1.1,-3.7 1.7,-5.6 -3.8,-1.5 -7.4,-3.2 -11,-5.1 -0.1,0.1 -0.1,0.1 -0.2,0.1 z" />
	</g></g>
	<g
   id="g256">
		
		
		
	</g>
<g
   id="g252"
   transform="translate(-12,-25.55)"
   style="fill:#ffffff">
			<path
   d="m 152,137.6 c -4.8,0 -8.3,-3.7 -8.3,-8.5 0,-4.7 3.5,-8.5 8.3,-8.5 3,0 4.8,1.1 6.4,2.6 l -1.3,1.4 c -1.4,-1.3 -2.9,-2.3 -5.2,-2.3 -3.6,0 -6.4,2.9 -6.4,6.8 0,3.8 2.8,6.8 6.4,6.8 2.3,0 3.7,-0.9 5.3,-2.4 l 1.2,1.2 c -1.5,1.7 -3.4,2.9 -6.4,2.9 z"
   id="path188"
   inkscape:connector-curvature="0"
   style="fill:#ffffff" />
			<path
   d="m 166.9,137.6 c -3.6,0 -6.3,-2.9 -6.3,-6.3 0,-3.5 2.7,-6.4 6.4,-6.4 3.6,0 6.3,2.9 6.3,6.3 0,3.4 -2.7,6.4 -6.4,6.4 z m 0,-11.1 c -2.6,0 -4.4,2.1 -4.4,4.7 0,2.6 1.9,4.8 4.5,4.8 2.6,0 4.5,-2.1 4.5,-4.7 -0.1,-2.7 -2,-4.8 -4.6,-4.8 z"
   id="path190"
   inkscape:connector-curvature="0"
   style="fill:#ffffff" />
			<path
   d="m 176.7,137.3 v -17.2 h 1.8 v 17.2 z"
   id="path192"
   inkscape:connector-curvature="0"
   style="fill:#ffffff" />
			<path
   d="m 182.9,137.3 v -17.2 h 1.8 v 17.2 z"
   id="path194"
   inkscape:connector-curvature="0"
   style="fill:#ffffff" />
			<path
   d="m 189.6,127.4 -0.5,-1.5 c 1.3,-0.6 2.7,-1 4.4,-1 3.3,0 5.2,1.7 5.2,4.9 v 7.4 H 197 v -1.8 c -0.8,1.1 -2.3,2.1 -4.4,2.1 -2.3,0 -4.5,-1.3 -4.5,-3.8 0,-2.6 2.1,-4 5.2,-4 1.6,0 2.7,0.2 3.7,0.5 v -0.4 c 0,-2.2 -1.3,-3.3 -3.6,-3.3 -1.5,0.1 -2.6,0.4 -3.8,0.9 z m 0.2,6.3 c 0,1.6 1.4,2.4 3.1,2.4 2.2,0 4.1,-1.4 4.1,-3.3 v -1.2 c -0.9,-0.3 -2.1,-0.5 -3.6,-0.5 -2.3,0 -3.6,1 -3.6,2.6 z"
   id="path196"
   inkscape:connector-curvature="0"
   style="fill:#ffffff" />
			<path
   d="m 209,137.5 c -2.3,0 -3.7,-1.2 -4.7,-2.6 v 2.3 h -1.8 V 120 h 1.8 v 7.5 c 1,-1.5 2.4,-2.7 4.7,-2.7 2.9,0 5.8,2.3 5.8,6.3 0,4.1 -2.8,6.4 -5.8,6.4 z m -0.3,-11 c -2.3,0 -4.4,1.9 -4.4,4.7 0,2.8 2.1,4.7 4.4,4.7 2.4,0 4.3,-1.7 4.3,-4.7 0,-2.9 -2,-4.7 -4.3,-4.7 z"
   id="path198"
   inkscape:connector-curvature="0"
   style="fill:#ffffff" />
			<path
   d="m 223.7,137.6 c -3.6,0 -6.3,-2.9 -6.3,-6.3 0,-3.5 2.7,-6.4 6.4,-6.4 3.6,0 6.3,2.9 6.3,6.3 0,3.4 -2.7,6.4 -6.4,6.4 z m 0,-11.1 c -2.6,0 -4.4,2.1 -4.4,4.7 0,2.6 1.9,4.8 4.5,4.8 2.6,0 4.5,-2.1 4.5,-4.7 0,-2.7 -2,-4.8 -4.6,-4.8 z"
   id="path200"
   inkscape:connector-curvature="0"
   style="fill:#ffffff" />
			<path
   d="m 235.2,137.3 h -1.8 v -12.2 h 1.8 v 3.2 c 0.9,-2 2.7,-3.5 5,-3.4 v 2 H 240 c -2.7,0 -4.8,1.9 -4.8,5.6 z"
   id="path202"
   inkscape:connector-curvature="0"
   style="fill:#ffffff" />
			<path
   d="m 243,127.4 -0.5,-1.5 c 1.3,-0.6 2.7,-1 4.4,-1 3.3,0 5.2,1.7 5.2,4.9 v 7.4 h -1.7 v -1.8 c -0.8,1.1 -2.3,2.1 -4.4,2.1 -2.3,0 -4.5,-1.3 -4.5,-3.8 0,-2.6 2.1,-4 5.2,-4 1.6,0 2.7,0.2 3.7,0.5 v -0.4 c 0,-2.2 -1.3,-3.3 -3.6,-3.3 -1.5,0.1 -2.6,0.4 -3.8,0.9 z m 0.3,6.3 c 0,1.6 1.4,2.4 3.1,2.4 2.2,0 4.1,-1.4 4.1,-3.3 v -1.2 c -0.9,-0.3 -2.1,-0.5 -3.6,-0.5 -2.4,0 -3.6,1 -3.6,2.6 z"
   id="path204"
   inkscape:connector-curvature="0"
   style="fill:#ffffff" />
			<path
   d="m 258.3,133.8 c 0,1.5 0.8,2 2,2 0.6,0 1.1,-0.1 1.8,-0.4 v 1.6 c -0.6,0.3 -1.3,0.5 -2.2,0.5 -2,0 -3.4,-1 -3.4,-3.4 v -7.3 h -1.7 v -1.6 h 1.7 v -3.7 h 1.8 v 3.7 h 3.9 v 1.6 h -3.9 z"
   id="path206"
   inkscape:connector-curvature="0"
   style="fill:#ffffff" />
			<path
   d="m 270.4,136 c 1.7,0 2.8,-0.7 3.8,-1.7 l 1.1,1 c -1.2,1.4 -2.7,2.3 -5,2.3 -3.3,0 -6.1,-2.6 -6.1,-6.4 0,-3.5 2.5,-6.4 5.8,-6.4 3.6,0 5.7,2.9 5.7,6.4 0,0.2 0,0.4 0,0.6 H 266 c 0.3,2.7 2.2,4.2 4.4,4.2 z m 3.5,-5.5 c -0.2,-2.2 -1.5,-4.1 -3.9,-4.1 -2.1,0 -3.7,1.8 -4,4.1 z"
   id="path208"
   inkscape:connector-curvature="0"
   style="fill:#ffffff" />
			<path
   d="m 278.5,137.3 v -2.5 h 2.2 v 2.5 z"
   id="path210"
   inkscape:connector-curvature="0"
   style="fill:#ffffff" />
			<path
   d="m 293.9,120.8 v 16.5 H 292 v -16.5 z"
   id="path212"
   inkscape:connector-curvature="0"
   style="fill:#ffffff" />
			<path
   d="m 300.2,137.3 h -1.8 v -12.2 h 1.8 v 2.1 c 0.8,-1.3 2.1,-2.4 4.2,-2.4 2.9,0 4.7,2 4.7,4.9 v 7.6 h -1.8 v -7.1 c 0,-2.3 -1.2,-3.7 -3.4,-3.7 -2.1,0 -3.6,1.5 -3.6,3.8 v 7 z"
   id="path214"
   inkscape:connector-curvature="0"
   style="fill:#ffffff" />
			<path
   d="m 314.7,137.3 h -1.8 v -12.2 h 1.8 v 2.1 c 0.8,-1.3 2.1,-2.4 4.2,-2.4 2.9,0 4.7,2 4.7,4.9 v 7.6 h -1.8 v -7.1 c 0,-2.3 -1.2,-3.7 -3.4,-3.7 -2.1,0 -3.6,1.5 -3.6,3.8 v 7 z"
   id="path216"
   inkscape:connector-curvature="0"
   style="fill:#ffffff" />
			<path
   d="m 332.9,137.6 c -3.6,0 -6.3,-2.9 -6.3,-6.3 0,-3.5 2.7,-6.4 6.4,-6.4 3.6,0 6.3,2.9 6.3,6.3 0,3.4 -2.7,6.4 -6.4,6.4 z m 0,-11.1 c -2.6,0 -4.5,2.1 -4.5,4.7 0,2.6 1.9,4.8 4.5,4.8 2.6,0 4.5,-2.1 4.5,-4.7 0.1,-2.7 -1.9,-4.8 -4.5,-4.8 z"
   id="path218"
   inkscape:connector-curvature="0"
   style="fill:#ffffff" />
			<path
   d="m 350.9,125.1 h 2 l -5.3,12.3 H 346 l -5.3,-12.3 h 2 l 4.1,10.1 z"
   id="path220"
   inkscape:connector-curvature="0"
   style="fill:#ffffff" />
			<path
   d="m 355.8,127.4 -0.5,-1.5 c 1.3,-0.6 2.7,-1 4.4,-1 3.3,0 5.2,1.7 5.2,4.9 v 7.4 h -1.7 v -1.8 c -0.8,1.1 -2.3,2.1 -4.4,2.1 -2.3,0 -4.5,-1.3 -4.5,-3.8 0,-2.6 2.1,-4 5.2,-4 1.6,0 2.7,0.2 3.7,0.5 v -0.4 c 0,-2.2 -1.3,-3.3 -3.6,-3.3 -1.5,0.1 -2.7,0.4 -3.8,0.9 z m 0.2,6.3 c 0,1.6 1.4,2.4 3.1,2.4 2.2,0 4.1,-1.4 4.1,-3.3 v -1.2 c -0.9,-0.3 -2.1,-0.5 -3.6,-0.5 -2.3,0 -3.6,1 -3.6,2.6 z"
   id="path222"
   inkscape:connector-curvature="0"
   style="fill:#ffffff" />
			<path
   d="m 371.1,133.8 c 0,1.5 0.8,2 2,2 0.6,0 1.1,-0.1 1.8,-0.4 v 1.6 c -0.6,0.3 -1.3,0.5 -2.2,0.5 -2,0 -3.4,-1 -3.4,-3.4 v -7.3 h -1.7 v -1.6 h 1.7 v -3.7 h 1.8 v 3.7 h 3.9 v 1.6 h -3.9 z"
   id="path224"
   inkscape:connector-curvature="0"
   style="fill:#ffffff" />
			<path
   d="m 383.1,136 c 1.7,0 2.8,-0.7 3.8,-1.7 l 1.1,1 c -1.2,1.4 -2.7,2.3 -5,2.3 -3.3,0 -6.1,-2.6 -6.1,-6.4 0,-3.5 2.5,-6.4 5.8,-6.4 3.6,0 5.7,2.9 5.7,6.4 0,0.2 0,0.4 0,0.6 h -9.7 c 0.4,2.7 2.3,4.2 4.4,4.2 z m 3.6,-5.5 c -0.2,-2.2 -1.5,-4.1 -3.9,-4.1 -2.1,0 -3.7,1.8 -4,4.1 z"
   id="path226"
   inkscape:connector-curvature="0"
   style="fill:#ffffff" />
			<path
   d="m 391.3,137.3 v -2.5 h 2.2 v 2.5 z"
   id="path228"
   inkscape:connector-curvature="0"
   style="fill:#ffffff" />
			<path
   d="m 419.9,137.3 h -2 l -1.9,-4.4 h -9 l -2,4.4 h -1.9 l 7.5,-16.6 h 1.7 z m -8.4,-14.4 -3.8,8.4 h 7.5 z"
   id="path230"
   inkscape:connector-curvature="0"
   style="fill:#ffffff" />
			<path
   d="m 427.8,137.6 c -3.6,0 -6.2,-2.9 -6.2,-6.3 0,-3.5 2.7,-6.4 6.2,-6.4 2.3,0 3.7,1 4.9,2.2 l -1.2,1.3 c -1,-1 -2,-1.8 -3.7,-1.8 -2.5,0 -4.4,2.1 -4.4,4.7 0,2.7 1.9,4.8 4.5,4.8 1.6,0 2.8,-0.8 3.7,-1.8 l 1.2,1.1 c -1.3,1.2 -2.7,2.2 -5,2.2 z"
   id="path232"
   inkscape:connector-curvature="0"
   style="fill:#ffffff" />
			<path
   d="m 440.9,137.6 c -3.6,0 -6.2,-2.9 -6.2,-6.3 0,-3.5 2.7,-6.4 6.2,-6.4 2.3,0 3.7,1 4.9,2.2 l -1.2,1.3 c -1,-1 -2,-1.8 -3.7,-1.8 -2.5,0 -4.4,2.1 -4.4,4.7 0,2.7 1.9,4.8 4.5,4.8 1.6,0 2.8,-0.8 3.7,-1.8 l 1.2,1.1 c -1.3,1.2 -2.7,2.2 -5,2.2 z"
   id="path234"
   inkscape:connector-curvature="0"
   style="fill:#ffffff" />
			<path
   d="m 453.8,136 c 1.7,0 2.8,-0.7 3.8,-1.7 l 1.1,1 c -1.2,1.4 -2.7,2.3 -5,2.3 -3.3,0 -6.1,-2.6 -6.1,-6.4 0,-3.5 2.5,-6.4 5.8,-6.4 3.6,0 5.7,2.9 5.7,6.4 0,0.2 0,0.4 0,0.6 h -9.7 c 0.4,2.7 2.3,4.2 4.4,4.2 z m 3.6,-5.5 c -0.2,-2.2 -1.5,-4.1 -3.9,-4.1 -2.1,0 -3.7,1.8 -4,4.1 z"
   id="path236"
   inkscape:connector-curvature="0"
   style="fill:#ffffff" />
			<path
   d="m 462.6,137.3 v -17.2 h 1.8 v 17.2 z"
   id="path238"
   inkscape:connector-curvature="0"
   style="fill:#ffffff" />
			<path
   d="m 474,136 c 1.7,0 2.8,-0.7 3.8,-1.7 l 1.1,1 c -1.2,1.4 -2.7,2.3 -5,2.3 -3.3,0 -6.1,-2.6 -6.1,-6.4 0,-3.5 2.5,-6.4 5.8,-6.4 3.6,0 5.7,2.9 5.7,6.4 0,0.2 0,0.4 0,0.6 h -9.6 c 0.2,2.7 2.1,4.2 4.3,4.2 z m 3.5,-5.5 c -0.2,-2.2 -1.5,-4.1 -3.9,-4.1 -2.1,0 -3.7,1.8 -4,4.1 z"
   id="path240"
   inkscape:connector-curvature="0"
   style="fill:#ffffff" />
			<path
   d="m 484.3,137.3 h -1.8 v -12.2 h 1.8 v 3.2 c 0.9,-2 2.7,-3.5 5,-3.4 v 2 h -0.1 c -2.7,0 -4.8,1.9 -4.8,5.6 v 4.8 z"
   id="path242"
   inkscape:connector-curvature="0"
   style="fill:#ffffff" />
			<path
   d="m 492.2,127.4 -0.5,-1.5 c 1.3,-0.6 2.7,-1 4.4,-1 3.3,0 5.2,1.7 5.2,4.9 v 7.4 h -1.7 v -1.8 c -0.8,1.1 -2.3,2.1 -4.4,2.1 -2.3,0 -4.5,-1.3 -4.5,-3.8 0,-2.6 2.1,-4 5.2,-4 1.6,0 2.7,0.2 3.7,0.5 v -0.4 c 0,-2.2 -1.3,-3.3 -3.6,-3.3 -1.6,0.1 -2.7,0.4 -3.8,0.9 z m 0.2,6.3 c 0,1.6 1.4,2.4 3.1,2.4 2.2,0 4.1,-1.4 4.1,-3.3 v -1.2 c -0.9,-0.3 -2.1,-0.5 -3.6,-0.5 -2.3,0 -3.6,1 -3.6,2.6 z"
   id="path244"
   inkscape:connector-curvature="0"
   style="fill:#ffffff" />
			<path
   d="m 507.4,133.8 c 0,1.5 0.8,2 2,2 0.6,0 1.1,-0.1 1.8,-0.4 v 1.6 c -0.6,0.3 -1.3,0.5 -2.2,0.5 -2,0 -3.4,-1 -3.4,-3.4 v -7.3 h -1.7 v -1.6 h 1.7 v -3.7 h 1.8 v 3.7 h 3.9 v 1.6 h -3.9 z"
   id="path246"
   inkscape:connector-curvature="0"
   style="fill:#ffffff" />
			<path
   d="m 519.5,136 c 1.7,0 2.8,-0.7 3.8,-1.7 l 1.1,1 c -1.2,1.4 -2.7,2.3 -5,2.3 -3.3,0 -6.1,-2.6 -6.1,-6.4 0,-3.5 2.5,-6.4 5.8,-6.4 3.6,0 5.7,2.9 5.7,6.4 0,0.2 0,0.4 0,0.6 h -9.7 c 0.4,2.7 2.3,4.2 4.4,4.2 z m 3.6,-5.5 c -0.2,-2.2 -1.5,-4.1 -3.9,-4.1 -2.1,0 -3.7,1.8 -4,4.1 z"
   id="path248"
   inkscape:connector-curvature="0"
   style="fill:#ffffff" />
			<path
   d="m 527.6,137.3 v -2.5 h 2.2 v 2.5 z"
   id="path250"
   inkscape:connector-curvature="0"
   style="fill:#ffffff" />
		</g><g
   id="g4099"
   transform="translate(-12,-15.003111)"
   style="fill:#ffffff"><path
     d="m 158,47.3 c -8.3,0 -13.8,-5.9 -13.8,-13.8 0,-7.5 5.7,-13.8 13.8,-13.8 4.6,0 7.5,1.3 10.2,3.6 l -3,3.5 c -2.1,-1.8 -4.1,-2.9 -7.5,-2.9 -4.9,0 -8.6,4.3 -8.6,9.4 0,5.5 3.6,9.6 9.1,9.6 2.5,0 4.8,-0.8 6.4,-2 v -5 h -6.8 V 32 h 11.4 v 11.2 c -2.7,2.2 -6.5,4.1 -11.2,4.1 z"
     id="path124"
     inkscape:connector-curvature="0"
     style="fill:#ffffff" /><path
     d="M 175,46.8 V 19 h 4.6 v 27.8 z"
     id="path126"
     inkscape:connector-curvature="0"
     style="fill:#ffffff" /><path
     d="m 195.2,47.3 c -6.1,0 -10.7,-4.7 -10.7,-10.4 0,-5.8 4.6,-10.6 10.7,-10.6 6.2,0 10.7,4.7 10.7,10.5 0,5.7 -4.5,10.5 -10.7,10.5 z m 0,-17 c -3.7,0 -6.1,2.9 -6.1,6.4 0,3.6 2.6,6.5 6.1,6.5 3.7,0 6.1,-2.9 6.1,-6.4 0,-3.5 -2.5,-6.5 -6.1,-6.5 z"
     id="path128"
     inkscape:connector-curvature="0"
     style="fill:#ffffff" /><path
     d="m 222.1,47.3 c -3.3,0 -5.4,-1.7 -6.8,-3.5 v 3.1 h -4.6 V 19 h 4.6 v 11 c 1.5,-2.1 3.6,-3.8 6.8,-3.8 4.8,0 9.4,3.8 9.4,10.5 -0.1,6.8 -4.6,10.6 -9.4,10.6 z m -1.1,-17 c -3.1,0 -5.9,2.6 -5.9,6.5 0,3.9 2.7,6.5 5.9,6.5 3.2,0 5.8,-2.5 5.8,-6.5 -0.1,-4 -2.7,-6.5 -5.8,-6.5 z"
     id="path130"
     inkscape:connector-curvature="0"
     style="fill:#ffffff" /><path
     d="m 248.5,46.8 v -2.5 c -1.4,1.6 -3.5,2.9 -6.5,2.9 -3.8,0 -7.2,-2.2 -7.2,-6.2 v 0 c 0,-4.3 3.5,-6.5 8.2,-6.5 2.4,0 4,0.3 5.6,0.8 v -0.5 c 0,-2.8 -1.8,-4.3 -5,-4.3 -2.2,0 -3.9,0.5 -5.8,1.3 l -1.3,-3.7 c 2.2,-1 4.4,-1.7 7.7,-1.7 5.9,0 8.8,3.1 8.8,8.5 v 11.9 z m 0.1,-8.5 c -1.2,-0.5 -2.8,-0.8 -4.6,-0.8 -2.9,0 -4.6,1.2 -4.6,3.2 v 0.1 c 0,1.9 1.7,3 3.9,3 3,0 5.3,-1.7 5.3,-4.2 z"
     id="path132"
     inkscape:connector-curvature="0"
     style="fill:#ffffff" /><path
     d="M 258.8,46.8 V 19 h 4.6 v 27.8 z"
     id="path134"
     inkscape:connector-curvature="0"
     style="fill:#ffffff" /><path
     d="m 306.9,46.8 h -5 l -2.7,-6.4 h -12.6 l -2.7,6.4 h -4.8 L 290.8,20 h 4.3 z m -14,-21.2 -4.6,10.7 h 9.2 z"
     id="path136"
     inkscape:connector-curvature="0"
     style="fill:#ffffff" /><path
     d="M 311.2,46.8 V 19 h 4.6 v 27.8 z"
     id="path138"
     inkscape:connector-curvature="0"
     style="fill:#ffffff" /><path
     d="M 322.1,46.8 V 19 h 4.6 v 27.8 z"
     id="path140"
     inkscape:connector-curvature="0"
     style="fill:#ffffff" /><path
     d="m 332.8,23.6 v -4.4 h 5 v 4.4 z M 333,46.8 V 26.7 h 4.6 v 20.1 z"
     id="path142"
     inkscape:connector-curvature="0"
     style="fill:#ffffff" /><path
     d="m 355.9,46.8 v -2.5 c -1.4,1.6 -3.5,2.9 -6.5,2.9 -3.8,0 -7.2,-2.2 -7.2,-6.2 v 0 c 0,-4.3 3.5,-6.5 8.2,-6.5 2.4,0 4,0.3 5.6,0.8 v -0.5 c 0,-2.8 -1.8,-4.3 -5,-4.3 -2.2,0 -3.9,0.5 -5.8,1.3 l -1.3,-3.7 c 2.2,-1 4.4,-1.7 7.7,-1.7 5.9,0 8.8,3.1 8.8,8.5 v 11.9 z m 0.1,-8.5 c -1.2,-0.5 -2.8,-0.8 -4.6,-0.8 -2.9,0 -4.6,1.2 -4.6,3.2 v 0.1 c 0,1.9 1.7,3 3.9,3 3,0 5.3,-1.7 5.3,-4.2 z"
     id="path144"
     inkscape:connector-curvature="0"
     style="fill:#ffffff" /><path
     d="M 370.6,46.8 H 366 V 26.7 h 4.6 v 3.1 c 1.3,-1.9 3.2,-3.5 6.3,-3.5 4.5,0 7.2,3 7.2,7.7 v 12.8 h -4.6 V 35.4 c 0,-3.1 -1.6,-4.9 -4.3,-4.9 -2.7,0 -4.5,1.9 -4.5,5 v 11.3 z"
     id="path146"
     inkscape:connector-curvature="0"
     style="fill:#ffffff" /><path
     d="m 398.9,47.3 c -6,0 -10.4,-4.7 -10.4,-10.4 0,-5.7 4.4,-10.6 10.4,-10.6 3.8,0 6.2,1.4 8,3.5 l -2.9,3.1 c -1.4,-1.5 -2.9,-2.5 -5.2,-2.5 -3.4,0 -5.8,2.9 -5.8,6.4 0,3.6 2.5,6.5 6,6.5 2.2,0 3.8,-1 5.2,-2.5 l 2.8,2.7 c -1.9,2.2 -4.2,3.8 -8.1,3.8 z"
     id="path148"
     inkscape:connector-curvature="0"
     style="fill:#ffffff" /><path
     d="m 420,43.5 c 2.2,0 3.8,-0.8 5.5,-2.4 l 2.7,2.4 c -1.9,2.3 -4.5,3.8 -8.2,3.8 -5.8,0 -10.3,-4.2 -10.3,-10.5 0,-5.8 4.1,-10.5 9.8,-10.5 6.4,0 9.6,5 9.6,10.9 0,0.4 0,0.8 -0.1,1.3 h -14.8 c 0.6,3.2 2.9,5 5.8,5 z m 4.5,-8.1 c -0.3,-3 -2.1,-5.3 -5.1,-5.3 -2.8,0 -4.8,2.2 -5.2,5.3 z"
     id="path150"
     inkscape:connector-curvature="0"
     style="fill:#ffffff" /><path
     d="m 154.3,70.8 v 2.3 h -5.7 V 88.8 H 146 V 73.1 h -2.5 v -2.3 h 2.5 v -1.6 c 0,-3.9 2,-6 5.4,-6 1.3,0 2.1,0.1 3,0.5 V 66 c -1,-0.3 -1.7,-0.5 -2.6,-0.5 -2.1,0 -3.1,1.3 -3.1,3.8 v 1.5 z"
     id="path152"
     inkscape:connector-curvature="0"
     style="fill:#ffffff" /><path
     d="m 165.6,89.2 c -5.4,0 -9.4,-4.3 -9.4,-9.4 0,-5.1 4,-9.5 9.4,-9.5 5.4,0 9.4,4.3 9.4,9.4 0.1,5.1 -3.9,9.5 -9.4,9.5 z m 0,-16.5 c -3.9,0 -6.6,3.1 -6.6,7 0,3.9 2.9,7.1 6.7,7.1 3.9,0 6.6,-3.1 6.6,-7 0.1,-4 -2.8,-7.1 -6.7,-7.1 z"
     id="path154"
     inkscape:connector-curvature="0"
     style="fill:#ffffff" /><path
     d="M 182.7,88.7 H 180 v -18 h 2.7 v 4.7 c 1.3,-3 3.9,-5.2 7.4,-5 v 2.9 h -0.2 c -3.9,0 -7.2,2.8 -7.2,8.3 z"
     id="path156"
     inkscape:connector-curvature="0"
     style="fill:#ffffff" /><path
     d="m 216.4,89.2 c -7.7,0 -12.4,-5.6 -12.4,-12.6 0,-6.7 4.9,-12.7 12.3,-12.7 4.1,0 6.7,1.2 9.1,3.2 l -1.8,2.1 c -1.9,-1.6 -4,-2.8 -7.4,-2.8 -5.4,0 -9.3,4.6 -9.3,10.1 0,5.9 3.7,10.2 9.7,10.2 2.8,0 5.4,-1.1 7.1,-2.4 v -6.1 h -7.4 v -2.5 h 10.1 v 9.7 c -2.5,2.1 -5.9,3.8 -10,3.8 z"
     id="path158"
     inkscape:connector-curvature="0"
     style="fill:#ffffff" /><path
     d="m 239.9,86.8 c 2.5,0 4.2,-1 5.7,-2.5 l 1.7,1.5 c -1.8,2 -4,3.4 -7.4,3.4 -5,0 -9,-3.8 -9,-9.4 0,-5.2 3.7,-9.4 8.7,-9.4 5.3,0 8.4,4.3 8.4,9.6 0,0.2 0,0.5 0,0.8 h -14.3 c 0.2,3.8 3,6 6.2,6 z m 5.3,-8.1 c -0.3,-3.3 -2.2,-6.1 -5.8,-6.1 -3.1,0 -5.5,2.6 -5.9,6.1 z"
     id="path160"
     inkscape:connector-curvature="0"
     style="fill:#ffffff" /><path
     d="m 255.3,88.7 h -2.7 v -18 h 2.7 v 3.1 c 1.2,-2 3.1,-3.5 6.2,-3.5 4.4,0 6.9,2.9 6.9,7.2 v 11.2 h -2.7 V 78.2 c 0,-3.4 -1.8,-5.4 -5,-5.4 -3.1,0 -5.4,2.3 -5.4,5.7 z"
     id="path162"
     inkscape:connector-curvature="0"
     style="fill:#ffffff" /><path
     d="m 282.4,89.2 c -5.4,0 -9.4,-4.3 -9.4,-9.4 0,-5.1 4,-9.5 9.4,-9.5 5.4,0 9.4,4.3 9.4,9.4 0,5.1 -4,9.5 -9.4,9.5 z m 0,-16.5 c -3.9,0 -6.6,3.1 -6.6,7 0,3.9 2.9,7.1 6.7,7.1 3.9,0 6.6,-3.1 6.6,-7 0,-4 -2.9,-7.1 -6.7,-7.1 z"
     id="path164"
     inkscape:connector-curvature="0"
     style="fill:#ffffff" /><path
     d="m 317.3,70.3 c 4.2,0 6.7,2.8 6.7,7.3 v 11.2 h -2.7 V 78.2 c 0,-3.5 -1.7,-5.4 -4.7,-5.4 -2.7,0 -5,2 -5,5.6 V 88.8 H 309 V 78.1 c 0,-3.4 -1.8,-5.4 -4.6,-5.4 -2.9,0 -5,2.4 -5,5.7 v 10.3 h -2.7 v -18 h 2.7 v 3 c 1.2,-1.8 2.8,-3.4 5.8,-3.4 2.9,0 4.8,1.6 5.8,3.6 1.3,-2 3.2,-3.6 6.3,-3.6 z"
     id="path166"
     inkscape:connector-curvature="0"
     style="fill:#ffffff" /><path
     d="m 330,66.7 v -3 h 3.1 v 3 z m 0.1,22 v -18 h 2.7 v 18 z"
     id="path168"
     inkscape:connector-curvature="0"
     style="fill:#ffffff" /><path
     d="m 347.2,89.2 c -5.3,0 -9.3,-4.3 -9.3,-9.4 0,-5.1 4,-9.5 9.3,-9.5 3.4,0 5.5,1.4 7.2,3.2 l -1.8,1.9 c -1.4,-1.5 -3,-2.7 -5.5,-2.7 -3.7,0 -6.5,3.1 -6.5,7 0,3.9 2.9,7.1 6.6,7.1 2.3,0 4.1,-1.2 5.5,-2.7 l 1.7,1.6 c -1.7,2 -3.8,3.5 -7.2,3.5 z"
     id="path170"
     inkscape:connector-curvature="0"
     style="fill:#ffffff" /><path
     d="m 365,89.1 c -2.6,0 -5.4,-1 -7.5,-2.7 l 1.4,-1.9 c 2,1.5 4.1,2.3 6.2,2.3 2.2,0 3.7,-1.1 3.7,-2.9 v -0.1 c 0,-1.8 -2.1,-2.5 -4.5,-3.2 -2.8,-0.8 -6,-1.8 -6,-5.1 v -0.1 c 0,-3.1 2.6,-5.2 6.1,-5.2 2.2,0 4.6,0.8 6.5,2 l -1.2,2 c -1.7,-1.1 -3.6,-1.7 -5.3,-1.7 -2.1,0 -3.5,1.1 -3.5,2.6 v 0.1 c 0,1.7 2.2,2.4 4.6,3.1 2.8,0.8 5.8,1.9 5.8,5.2 v 0.1 c 0.1,3.5 -2.7,5.5 -6.3,5.5 z"
     id="path172"
     inkscape:connector-curvature="0"
     style="fill:#ffffff" /><path
     d="m 424.8,77.7 v 11 H 422 V 64.3 h 2.8 v 10.9 h 14.1 V 64.3 h 2.8 v 24.4 h -2.8 v -11 z"
     id="path174"
     inkscape:connector-curvature="0"
     style="fill:#ffffff" /><path
     d="m 456.1,86.8 c 2.5,0 4.2,-1 5.7,-2.5 l 1.7,1.5 c -1.8,2 -4,3.4 -7.4,3.4 -5,0 -9,-3.8 -9,-9.4 0,-5.2 3.7,-9.4 8.7,-9.4 5.3,0 8.4,4.3 8.4,9.6 0,0.2 0,0.5 0,0.8 h -14.3 c 0.3,3.8 3.1,6 6.2,6 z m 5.3,-8.1 c -0.3,-3.3 -2.2,-6.1 -5.8,-6.1 -3.1,0 -5.5,2.6 -5.9,6.1 z"
     id="path176"
     inkscape:connector-curvature="0"
     style="fill:#ffffff" /><path
     d="m 469.9,74.1 -0.8,-2.2 c 2,-0.9 3.9,-1.5 6.6,-1.5 4.9,0 7.7,2.5 7.7,7.3 v 11 h -2.6 V 86 c -1.3,1.6 -3.4,3.1 -6.5,3.1 -3.3,0 -6.7,-1.9 -6.7,-5.7 0,-3.8 3.1,-5.9 7.7,-5.9 2.3,0 3.9,0.3 5.6,0.8 v -0.6 c 0,-3.2 -2,-4.9 -5.4,-4.9 -2.3,0 -3.9,0.6 -5.6,1.3 z m 0.3,9.3 c 0,2.3 2.1,3.6 4.5,3.6 3.3,0 6,-2 6,-4.9 v -1.7 c -1.3,-0.4 -3.1,-0.8 -5.3,-0.8 -3.3,0 -5.2,1.5 -5.2,3.8 z"
     id="path178"
     inkscape:connector-curvature="0"
     style="fill:#ffffff" /><path
     d="M 489.3,88.7 V 63.3 h 2.7 v 25.5 h -2.7 z"
     id="path180"
     inkscape:connector-curvature="0"
     style="fill:#ffffff" /><path
     d="m 501.9,83.6 c 0,2.2 1.2,3 3,3 0.9,0 1.7,-0.2 2.6,-0.6 v 2.3 c -0.9,0.5 -2,0.8 -3.2,0.8 -2.9,0 -5.1,-1.4 -5.1,-5.1 V 73.1 h -2.5 v -2.4 h 2.5 v -5.4 h 2.7 v 5.4 h 5.7 v 2.4 h -5.7 z"
     id="path182"
     inkscape:connector-curvature="0"
     style="fill:#ffffff" /><path
     d="m 515,88.7 h -2.7 V 63.3 h 2.7 v 10.6 c 1.2,-2 3.1,-3.5 6.2,-3.5 4.4,0 6.9,2.9 6.9,7.2 v 11.2 h -2.7 V 78.2 c 0,-3.4 -1.8,-5.4 -5,-5.4 -3.1,0 -5.4,2.3 -5.4,5.7 z"
     id="path184"
     inkscape:connector-curvature="0"
     style="fill:#ffffff" /><path
     id="path254"
     d="m 402.7,76.1 v -3 H 400 v 3 h -4.2 c -3.8,0 -4.2,-2.5 -4.2,-3.6 0,-2.1 1.6,-3.5 4.1,-3.5 0.6,0 1.2,0.1 1.5,0.2 l 0.7,-2.1 c -0.4,-0.1 -1.5,-0.3 -2.4,-0.3 -4,0 -6.6,2.2 -6.6,5.5 0,3.6 2.7,4.6 2.8,4.6 l 0.7,0.2 -0.7,0.2 c -2.2,0.7 -3.7,2.9 -3.7,5.5 0,3.7 3.1,6.3 7.4,6.3 4.6,0 7.4,-2.8 7.4,-7.5 v -3.1 h 2.9 v -2.3 h -3 z m -3,5.4 c 0,3.2 -1.6,4.9 -4.5,4.9 -2.6,0 -4.4,-1.6 -4.4,-3.8 0,-2.4 1.8,-3.8 4.8,-3.9 h 4.2 z"
     style="fill:#ffffff"
     inkscape:connector-curvature="0" /></g></g>
</svg>